%TF.GenerationSoftware,KiCad,Pcbnew,8.0.3*%
%TF.CreationDate,2024-07-03T21:33:09+01:00*%
%TF.ProjectId,Peanut,5065616e-7574-42e6-9b69-6361645f7063,rev?*%
%TF.SameCoordinates,Original*%
%TF.FileFunction,Copper,L2,Bot*%
%TF.FilePolarity,Positive*%
%FSLAX46Y46*%
G04 Gerber Fmt 4.6, Leading zero omitted, Abs format (unit mm)*
G04 Created by KiCad (PCBNEW 8.0.3) date 2024-07-03 21:33:09*
%MOMM*%
%LPD*%
G01*
G04 APERTURE LIST*
%TA.AperFunction,ComponentPad*%
%ADD10R,1.700000X1.700000*%
%TD*%
%TA.AperFunction,ComponentPad*%
%ADD11O,1.700000X1.700000*%
%TD*%
%TA.AperFunction,ComponentPad*%
%ADD12O,1.400000X2.200000*%
%TD*%
%TA.AperFunction,ComponentPad*%
%ADD13C,1.524000*%
%TD*%
%TA.AperFunction,ComponentPad*%
%ADD14C,1.750000*%
%TD*%
%TA.AperFunction,ComponentPad*%
%ADD15C,2.100000*%
%TD*%
%TA.AperFunction,ComponentPad*%
%ADD16O,2.200000X1.400000*%
%TD*%
%TA.AperFunction,ComponentPad*%
%ADD17C,2.000000*%
%TD*%
%TA.AperFunction,ComponentPad*%
%ADD18R,2.000000X2.000000*%
%TD*%
%TA.AperFunction,ViaPad*%
%ADD19C,0.600000*%
%TD*%
%TA.AperFunction,Conductor*%
%ADD20C,0.300000*%
%TD*%
%TA.AperFunction,Conductor*%
%ADD21C,0.200000*%
%TD*%
%TA.AperFunction,Conductor*%
%ADD22C,0.762000*%
%TD*%
%TA.AperFunction,Conductor*%
%ADD23C,0.150000*%
%TD*%
G04 APERTURE END LIST*
D10*
%TO.P,J2,1,Pin_1*%
%TO.N,GND*%
X178850000Y-85300000D03*
D11*
%TO.P,J2,2,Pin_2*%
%TO.N,UART_TX*%
X181390000Y-85300000D03*
%TO.P,J2,3,Pin_3*%
%TO.N,SDA*%
X178850000Y-82760000D03*
%TO.P,J2,4,Pin_4*%
%TO.N,SCL*%
X181390000Y-82760000D03*
%TO.P,J2,5,Pin_5*%
%TO.N,Net-(J1-Pin_5)*%
X178850000Y-80220000D03*
%TO.P,J2,6,Pin_6*%
%TO.N,Net-(J1-Pin_6)*%
X181390000Y-80220000D03*
%TO.P,J2,7,Pin_7*%
%TO.N,UART_RX*%
X178850000Y-77680000D03*
%TO.P,J2,8,Pin_8*%
%TO.N,+3V3*%
X181390000Y-77680000D03*
%TD*%
D12*
%TO.P,SW6,5*%
%TO.N,N/C*%
X180650000Y-48000000D03*
%TO.P,SW6,4*%
X172350000Y-48000000D03*
D13*
%TO.P,SW6,3*%
%TO.N,+3V3*%
X174500000Y-48000000D03*
%TO.P,SW6,2*%
%TO.N,unconnected-(SW6-Pad2)*%
X176500000Y-48000000D03*
%TO.P,SW6,1*%
%TO.N,Net-(BT1-+)*%
X178500000Y-48000000D03*
%TD*%
D14*
%TO.P,SW1,2*%
%TO.N,+3V3*%
X112225000Y-48212500D03*
%TO.P,SW1,1*%
%TO.N,Net-(U2-P4)*%
X107725000Y-48212500D03*
D15*
%TO.P,SW1,*%
%TO.N,*%
X113485000Y-50702500D03*
X106475000Y-50702500D03*
%TD*%
D11*
%TO.P,J1,8,Pin_8*%
%TO.N,+3V3*%
X174750000Y-77680000D03*
%TO.P,J1,7,Pin_7*%
%TO.N,UART_RX*%
X172210000Y-77680000D03*
%TO.P,J1,6,Pin_6*%
%TO.N,Net-(J1-Pin_6)*%
X174750000Y-80220000D03*
%TO.P,J1,5,Pin_5*%
%TO.N,Net-(J1-Pin_5)*%
X172210000Y-80220000D03*
%TO.P,J1,4,Pin_4*%
%TO.N,SCL*%
X174750000Y-82760000D03*
%TO.P,J1,3,Pin_3*%
%TO.N,SDA*%
X172210000Y-82760000D03*
%TO.P,J1,2,Pin_2*%
%TO.N,UART_TX*%
X174750000Y-85300000D03*
D10*
%TO.P,J1,1,Pin_1*%
%TO.N,GND*%
X172210000Y-85300000D03*
%TD*%
D16*
%TO.P,SW5,5*%
%TO.N,N/C*%
X97325000Y-49850000D03*
%TO.P,SW5,4*%
X97325000Y-58150000D03*
D13*
%TO.P,SW5,3*%
%TO.N,GND*%
X97325000Y-56000000D03*
%TO.P,SW5,2*%
%TO.N,+3V3*%
X97325000Y-54000000D03*
%TO.P,SW5,1*%
%TO.N,Net-(U2-P5)*%
X97325000Y-52000000D03*
%TD*%
D15*
%TO.P,SW2,*%
%TO.N,*%
X121475000Y-50702500D03*
X128485000Y-50702500D03*
D14*
%TO.P,SW2,1*%
%TO.N,Net-(U2-P3)*%
X122725000Y-48212500D03*
%TO.P,SW2,2*%
%TO.N,+3V3*%
X127225000Y-48212500D03*
%TD*%
%TO.P,SW4,2*%
%TO.N,Net-(U2-P2)*%
X157225000Y-48212500D03*
%TO.P,SW4,1*%
%TO.N,+3V3*%
X152725000Y-48212500D03*
D15*
%TO.P,SW4,*%
%TO.N,*%
X158485000Y-50702500D03*
X151475000Y-50702500D03*
%TD*%
D17*
%TO.P,BZ1,2,-*%
%TO.N,GND*%
X127300000Y-81000000D03*
D18*
%TO.P,BZ1,1,+*%
%TO.N,Net-(BZ1-+)*%
X119700000Y-81000000D03*
%TD*%
D14*
%TO.P,SW3,2*%
%TO.N,+3V3*%
X142225000Y-48212500D03*
%TO.P,SW3,1*%
%TO.N,Net-(U2-P1)*%
X137725000Y-48212500D03*
D15*
%TO.P,SW3,*%
%TO.N,*%
X143485000Y-50702500D03*
X136475000Y-50702500D03*
%TD*%
D17*
%TO.P,BZ2,2,-*%
%TO.N,GND*%
X140300000Y-81000000D03*
D18*
%TO.P,BZ2,1,+*%
%TO.N,Net-(BZ2-+)*%
X132700000Y-81000000D03*
%TD*%
D19*
%TO.N,GND*%
X131473000Y-51200000D03*
X143100000Y-87000000D03*
X145200000Y-75400000D03*
X116000000Y-74500000D03*
X101400000Y-83700000D03*
X97500000Y-63500000D03*
X146500000Y-51100000D03*
X169200000Y-48000000D03*
X170475000Y-48650000D03*
X168900000Y-80500000D03*
X164000000Y-87073000D03*
X155800000Y-88200000D03*
X156500000Y-84500000D03*
X161900000Y-81200000D03*
X162700000Y-75577000D03*
X161023000Y-75950000D03*
X158200000Y-76200000D03*
X156525000Y-74875000D03*
X151600000Y-75000000D03*
X153400000Y-75700000D03*
X153500000Y-77200000D03*
X153500000Y-78700000D03*
X113600000Y-76100000D03*
X116400000Y-82000000D03*
%TO.N,+3V3*%
X167600000Y-75000000D03*
X165400000Y-75000000D03*
X135600000Y-46400000D03*
X120000000Y-46400000D03*
X101200000Y-50600000D03*
X164527000Y-49400000D03*
X173800000Y-67400000D03*
%TO.N,Net-(D1-K)*%
X123600000Y-83800000D03*
X123600000Y-82400000D03*
%TO.N,Net-(D2-K)*%
X122200000Y-83800000D03*
X122200000Y-82400000D03*
%TO.N,Net-(D1-K)*%
X130600000Y-71600000D03*
%TO.N,Net-(D2-K)*%
X129600000Y-71600000D03*
%TO.N,SDA*%
X134000000Y-57000000D03*
X134000000Y-67973000D03*
X150000000Y-67800000D03*
X150000000Y-57000000D03*
%TO.N,/DigitalMuxer/P2*%
X164000000Y-71600000D03*
%TO.N,Net-(U2-P5)*%
X100600000Y-55200000D03*
%TO.N,SDA*%
X166500000Y-84500000D03*
%TO.N,SCL*%
X148000000Y-53400000D03*
X132000000Y-53400000D03*
%TO.N,/DigitalMuxer/P2*%
X164000000Y-67800000D03*
%TO.N,SDA*%
X134000000Y-53400000D03*
X134000000Y-69088000D03*
%TO.N,SCL*%
X132000000Y-57000000D03*
%TO.N,Net-(D1-K)*%
X130600000Y-67973000D03*
%TO.N,Net-(D2-K)*%
X129600000Y-67973000D03*
%TO.N,SDA*%
X165000000Y-69200000D03*
X150000000Y-69200000D03*
X165000000Y-67800000D03*
%TO.N,Net-(U7-AIN3)*%
X166000000Y-81400000D03*
%TO.N,Net-(U7-AIN1)*%
X159000000Y-86350000D03*
X159000000Y-88000000D03*
%TO.N,SDA*%
X150000000Y-53400000D03*
%TO.N,Net-(U7-AIN3)*%
X166000000Y-86100000D03*
%TO.N,SCL*%
X148000000Y-57000000D03*
%TO.N,SDA*%
X168260000Y-82760000D03*
%TD*%
D20*
%TO.N,+3V3*%
X105400000Y-46400000D02*
X115600000Y-46400000D01*
X167600000Y-75000000D02*
X165400000Y-75000000D01*
X141000000Y-46400000D02*
X129400000Y-46400000D01*
X141000000Y-46987500D02*
X141000000Y-46400000D01*
X142225000Y-48212500D02*
X141000000Y-46987500D01*
X114000000Y-46400000D02*
X112200000Y-48200000D01*
X120000000Y-46400000D02*
X114000000Y-46400000D01*
X120800000Y-46400000D02*
X120000000Y-46400000D01*
X129400000Y-46400000D02*
X120800000Y-46400000D01*
D21*
%TO.N,Net-(U2-P5)*%
X100525000Y-55200000D02*
X97325000Y-52000000D01*
X100600000Y-55200000D02*
X100525000Y-55200000D01*
D20*
%TO.N,+3V3*%
X105400000Y-46400000D02*
X101200000Y-50600000D01*
X129400000Y-46400000D02*
X129000000Y-46400000D01*
X129000000Y-46400000D02*
X127200000Y-48200000D01*
X144000000Y-46400000D02*
X142200000Y-48200000D01*
X154600000Y-46400000D02*
X144000000Y-46400000D01*
X161527000Y-46400000D02*
X157200000Y-46400000D01*
X164527000Y-49400000D02*
X161527000Y-46400000D01*
X154600000Y-46400000D02*
X152800000Y-48200000D01*
X157200000Y-46400000D02*
X154600000Y-46400000D01*
D22*
X174800000Y-68600000D02*
X174800000Y-77800000D01*
X173800000Y-67600000D02*
X174800000Y-68600000D01*
X173800000Y-67400000D02*
X173800000Y-67600000D01*
D23*
%TO.N,Net-(D1-K)*%
X123600000Y-82400000D02*
X123600000Y-83800000D01*
%TO.N,Net-(D2-K)*%
X122200000Y-82400000D02*
X122200000Y-83800000D01*
%TO.N,Net-(D1-K)*%
X130600000Y-67973000D02*
X130600000Y-71600000D01*
%TO.N,Net-(D2-K)*%
X129600000Y-67973000D02*
X129600000Y-71600000D01*
D21*
%TO.N,SDA*%
X150000000Y-67800000D02*
X150000000Y-69200000D01*
X150000000Y-53400000D02*
X150000000Y-57000000D01*
%TO.N,SCL*%
X148000000Y-57000000D02*
X148000000Y-53400000D01*
%TO.N,Net-(D2-K)*%
X129600000Y-67973000D02*
X129500000Y-68073000D01*
%TO.N,Net-(D1-K)*%
X130600000Y-67973000D02*
X130500000Y-68073000D01*
%TO.N,SCL*%
X132000000Y-53400000D02*
X132000000Y-57000000D01*
%TO.N,SDA*%
X134000000Y-53400000D02*
X134000000Y-57000000D01*
%TO.N,/DigitalMuxer/P2*%
X164000000Y-67800000D02*
X164000000Y-71600000D01*
%TO.N,SDA*%
X165000000Y-67800000D02*
X165000000Y-69200000D01*
X134000000Y-69088000D02*
X134000000Y-67973000D01*
%TO.N,Net-(U7-AIN3)*%
X165400000Y-82000000D02*
X166000000Y-81400000D01*
X165400000Y-85500000D02*
X165400000Y-82000000D01*
X166000000Y-86100000D02*
X165400000Y-85500000D01*
%TO.N,UART_TX*%
X174750000Y-85300000D02*
X176050000Y-84000000D01*
X176050000Y-84000000D02*
X180090000Y-84000000D01*
%TO.N,UART_RX*%
X178850000Y-77680000D02*
X176376346Y-77680000D01*
X173360000Y-78830000D02*
X172210000Y-77680000D01*
%TO.N,Net-(J1-Pin_5)*%
X176376346Y-80220000D02*
X175226346Y-81370000D01*
%TO.N,UART_RX*%
X176376346Y-77680000D02*
X175226346Y-78830000D01*
%TO.N,Net-(J1-Pin_6)*%
X175970000Y-79000000D02*
X180170000Y-79000000D01*
%TO.N,SDA*%
X173450000Y-84000000D02*
X172210000Y-82760000D01*
%TO.N,Net-(J1-Pin_6)*%
X180170000Y-79000000D02*
X181390000Y-80220000D01*
%TO.N,SDA*%
X175136346Y-84000000D02*
X173450000Y-84000000D01*
X178850000Y-82760000D02*
X176376346Y-82760000D01*
%TO.N,Net-(J1-Pin_6)*%
X174750000Y-80220000D02*
X175970000Y-79000000D01*
%TO.N,Net-(J1-Pin_5)*%
X175226346Y-81370000D02*
X173360000Y-81370000D01*
%TO.N,UART_RX*%
X175226346Y-78830000D02*
X173360000Y-78830000D01*
%TO.N,Net-(J1-Pin_5)*%
X173360000Y-81370000D02*
X172210000Y-80220000D01*
%TO.N,SCL*%
X175900000Y-81610000D02*
X180240000Y-81610000D01*
X174750000Y-82760000D02*
X175900000Y-81610000D01*
%TO.N,UART_TX*%
X180090000Y-84000000D02*
X181390000Y-85300000D01*
%TO.N,Net-(U7-AIN1)*%
X159000000Y-88000000D02*
X159000000Y-86350000D01*
%TO.N,SDA*%
X166500000Y-84500000D02*
X168240000Y-82760000D01*
%TO.N,+3V3*%
X174750000Y-77680000D02*
X176430000Y-76000000D01*
X179500000Y-76500000D02*
X180210000Y-76500000D01*
X180210000Y-76500000D02*
X181390000Y-77680000D01*
%TO.N,SDA*%
X168240000Y-82760000D02*
X168260000Y-82760000D01*
%TO.N,+3V3*%
X179000000Y-76000000D02*
X179500000Y-76500000D01*
%TO.N,Net-(J1-Pin_5)*%
X178850000Y-80220000D02*
X176376346Y-80220000D01*
%TO.N,+3V3*%
X176430000Y-76000000D02*
X179000000Y-76000000D01*
%TO.N,SDA*%
X176376346Y-82760000D02*
X175136346Y-84000000D01*
%TO.N,SCL*%
X180240000Y-81610000D02*
X181390000Y-82760000D01*
%TD*%
%TA.AperFunction,Conductor*%
%TO.N,GND*%
G36*
X171820427Y-45519454D02*
G01*
X171901209Y-45573430D01*
X171955185Y-45654212D01*
X171974139Y-45749500D01*
X171955185Y-45844788D01*
X171901209Y-45925570D01*
X171820427Y-45979546D01*
X171805170Y-45985288D01*
X171802216Y-45986290D01*
X171596279Y-46071592D01*
X171596275Y-46071594D01*
X171403230Y-46183049D01*
X171226373Y-46318755D01*
X171068755Y-46476373D01*
X170933049Y-46653230D01*
X170821594Y-46846275D01*
X170821592Y-46846279D01*
X170736292Y-47052211D01*
X170736291Y-47052215D01*
X170678595Y-47267541D01*
X170649500Y-47488543D01*
X170649500Y-48511456D01*
X170677804Y-48726453D01*
X170678596Y-48732463D01*
X170724352Y-48903226D01*
X170736291Y-48947784D01*
X170736292Y-48947788D01*
X170821592Y-49153720D01*
X170821594Y-49153724D01*
X170914340Y-49314365D01*
X170933052Y-49346774D01*
X171068753Y-49523624D01*
X171226376Y-49681247D01*
X171403226Y-49816948D01*
X171596274Y-49928405D01*
X171596279Y-49928407D01*
X171802211Y-50013707D01*
X171802212Y-50013707D01*
X171802219Y-50013710D01*
X172017537Y-50071404D01*
X172238543Y-50100500D01*
X172461457Y-50100500D01*
X172682463Y-50071404D01*
X172897781Y-50013710D01*
X173103726Y-49928405D01*
X173296774Y-49816948D01*
X173473624Y-49681247D01*
X173496713Y-49658157D01*
X173577489Y-49604184D01*
X173672777Y-49585228D01*
X173768065Y-49604180D01*
X173780820Y-49609888D01*
X173854278Y-49645264D01*
X174106699Y-49723127D01*
X174106701Y-49723127D01*
X174106707Y-49723129D01*
X174326251Y-49756219D01*
X174367918Y-49762500D01*
X174367919Y-49762500D01*
X174632082Y-49762500D01*
X174668016Y-49757083D01*
X174893293Y-49723129D01*
X174893298Y-49723127D01*
X174893300Y-49723127D01*
X174927973Y-49712431D01*
X175145719Y-49645265D01*
X175145724Y-49645262D01*
X175145726Y-49645262D01*
X175391963Y-49526681D01*
X175486039Y-49502414D01*
X175582240Y-49515995D01*
X175608037Y-49526681D01*
X175854273Y-49645262D01*
X175854277Y-49645263D01*
X175854281Y-49645265D01*
X176004859Y-49691712D01*
X176106699Y-49723127D01*
X176106701Y-49723127D01*
X176106707Y-49723129D01*
X176326251Y-49756219D01*
X176367918Y-49762500D01*
X176367919Y-49762500D01*
X176632082Y-49762500D01*
X176668016Y-49757083D01*
X176893293Y-49723129D01*
X176893298Y-49723127D01*
X176893300Y-49723127D01*
X176927973Y-49712431D01*
X177145719Y-49645265D01*
X177145724Y-49645262D01*
X177145726Y-49645262D01*
X177391963Y-49526681D01*
X177486039Y-49502414D01*
X177582240Y-49515995D01*
X177608037Y-49526681D01*
X177854273Y-49645262D01*
X177854277Y-49645263D01*
X177854281Y-49645265D01*
X178004859Y-49691712D01*
X178106699Y-49723127D01*
X178106701Y-49723127D01*
X178106707Y-49723129D01*
X178326251Y-49756219D01*
X178367918Y-49762500D01*
X178367919Y-49762500D01*
X178632082Y-49762500D01*
X178668016Y-49757083D01*
X178893293Y-49723129D01*
X178893298Y-49723127D01*
X178893300Y-49723127D01*
X178979240Y-49696617D01*
X179145719Y-49645265D01*
X179219180Y-49609887D01*
X179313256Y-49585621D01*
X179409457Y-49599202D01*
X179493138Y-49648564D01*
X179503288Y-49658159D01*
X179526376Y-49681247D01*
X179703226Y-49816948D01*
X179896274Y-49928405D01*
X179896279Y-49928407D01*
X180102211Y-50013707D01*
X180102212Y-50013707D01*
X180102219Y-50013710D01*
X180317537Y-50071404D01*
X180538543Y-50100500D01*
X180761457Y-50100500D01*
X180982463Y-50071404D01*
X181197781Y-50013710D01*
X181403726Y-49928405D01*
X181596774Y-49816948D01*
X181773624Y-49681247D01*
X181931247Y-49523624D01*
X182066948Y-49346774D01*
X182178405Y-49153726D01*
X182263710Y-48947781D01*
X182321404Y-48732463D01*
X182350500Y-48511457D01*
X182350500Y-47488543D01*
X182321404Y-47267537D01*
X182263710Y-47052219D01*
X182252035Y-47024034D01*
X182178407Y-46846279D01*
X182178405Y-46846275D01*
X182178405Y-46846274D01*
X182066948Y-46653226D01*
X181931247Y-46476376D01*
X181773624Y-46318753D01*
X181596774Y-46183052D01*
X181403726Y-46071595D01*
X181403724Y-46071594D01*
X181403720Y-46071592D01*
X181197783Y-45986290D01*
X181194830Y-45985288D01*
X181193475Y-45984506D01*
X181190250Y-45983170D01*
X181190425Y-45982745D01*
X181110689Y-45936713D01*
X181051543Y-45859637D01*
X181026395Y-45765793D01*
X181039073Y-45669469D01*
X181087648Y-45585328D01*
X181164724Y-45526182D01*
X181258568Y-45501034D01*
X181274861Y-45500500D01*
X185250500Y-45500500D01*
X185345788Y-45519454D01*
X185426570Y-45573430D01*
X185480546Y-45654212D01*
X185499500Y-45749500D01*
X185499500Y-88250500D01*
X185480546Y-88345788D01*
X185426570Y-88426570D01*
X185345788Y-88480546D01*
X185250500Y-88499500D01*
X160533503Y-88499500D01*
X160438215Y-88480546D01*
X160357433Y-88426570D01*
X160303457Y-88345788D01*
X160284503Y-88250500D01*
X160285451Y-88228798D01*
X160305468Y-88000005D01*
X160305468Y-87999994D01*
X160285636Y-87773320D01*
X160285635Y-87773308D01*
X160226739Y-87553504D01*
X160148460Y-87385635D01*
X160130571Y-87347272D01*
X160130566Y-87347263D01*
X160116194Y-87326738D01*
X160109950Y-87317821D01*
X160070822Y-87228895D01*
X160068702Y-87131763D01*
X160103914Y-87041214D01*
X160109951Y-87032178D01*
X160130568Y-87002734D01*
X160226739Y-86796496D01*
X160285635Y-86576692D01*
X160296688Y-86450354D01*
X160305468Y-86350005D01*
X160305468Y-86349994D01*
X160285636Y-86123320D01*
X160285635Y-86123308D01*
X160226739Y-85903504D01*
X160184197Y-85812272D01*
X160130571Y-85697272D01*
X160130563Y-85697258D01*
X160000050Y-85510865D01*
X160000049Y-85510864D01*
X160000047Y-85510861D01*
X159839139Y-85349953D01*
X159839135Y-85349950D01*
X159839134Y-85349949D01*
X159652741Y-85219436D01*
X159652727Y-85219428D01*
X159446499Y-85123262D01*
X159446496Y-85123261D01*
X159226694Y-85064365D01*
X159226679Y-85064363D01*
X159000006Y-85044532D01*
X158999994Y-85044532D01*
X158773320Y-85064363D01*
X158773305Y-85064365D01*
X158553503Y-85123261D01*
X158553500Y-85123262D01*
X158347272Y-85219428D01*
X158347258Y-85219436D01*
X158160865Y-85349949D01*
X157999949Y-85510865D01*
X157869436Y-85697258D01*
X157869428Y-85697272D01*
X157773262Y-85903500D01*
X157773261Y-85903503D01*
X157714365Y-86123305D01*
X157714363Y-86123320D01*
X157694532Y-86349994D01*
X157694532Y-86350005D01*
X157714363Y-86576679D01*
X157714365Y-86576694D01*
X157773261Y-86796496D01*
X157773262Y-86796499D01*
X157869427Y-87002725D01*
X157869434Y-87002737D01*
X157890052Y-87032184D01*
X157929179Y-87121112D01*
X157931296Y-87218244D01*
X157896081Y-87308793D01*
X157890052Y-87317816D01*
X157869434Y-87347262D01*
X157869427Y-87347274D01*
X157773262Y-87553500D01*
X157773261Y-87553503D01*
X157714365Y-87773305D01*
X157714363Y-87773320D01*
X157694532Y-87999994D01*
X157694532Y-88000005D01*
X157714549Y-88228798D01*
X157703973Y-88325375D01*
X157657242Y-88410554D01*
X157581473Y-88471366D01*
X157488199Y-88498552D01*
X157466497Y-88499500D01*
X94749500Y-88499500D01*
X94654212Y-88480546D01*
X94573430Y-88426570D01*
X94519454Y-88345788D01*
X94500500Y-88250500D01*
X94500500Y-85378843D01*
X149339589Y-85378843D01*
X149339589Y-85521157D01*
X149343736Y-85550000D01*
X149360064Y-85663570D01*
X149360065Y-85663573D01*
X149400160Y-85800124D01*
X149400161Y-85800125D01*
X149401192Y-85803636D01*
X149405703Y-85812262D01*
X149433578Y-85873298D01*
X149459930Y-85931002D01*
X149459932Y-85931006D01*
X149536871Y-86050723D01*
X149536875Y-86050729D01*
X149599763Y-86123305D01*
X149631093Y-86159461D01*
X149675375Y-86197832D01*
X149731926Y-86246833D01*
X149735189Y-86249871D01*
X149738642Y-86252653D01*
X149738648Y-86252658D01*
X149738650Y-86252660D01*
X149859690Y-86330447D01*
X149989144Y-86389566D01*
X149989146Y-86389566D01*
X149989147Y-86389567D01*
X149997730Y-86392087D01*
X150127192Y-86430100D01*
X150255472Y-86448544D01*
X150259024Y-86449242D01*
X150268028Y-86450349D01*
X150268058Y-86450354D01*
X150268062Y-86450355D01*
X150411942Y-86450354D01*
X150411944Y-86450354D01*
X150552801Y-86430101D01*
X150552800Y-86430101D01*
X150552808Y-86430100D01*
X150690856Y-86389566D01*
X150820310Y-86330447D01*
X150820312Y-86330446D01*
X150941352Y-86252658D01*
X151048907Y-86159461D01*
X151143128Y-86050725D01*
X151217667Y-85934739D01*
X151219865Y-85931450D01*
X151232630Y-85903500D01*
X151279840Y-85800124D01*
X151319935Y-85663573D01*
X151340411Y-85521157D01*
X151340411Y-85378843D01*
X151319935Y-85236427D01*
X151279840Y-85099876D01*
X151279839Y-85099875D01*
X151279837Y-85099871D01*
X151278808Y-85096366D01*
X151274299Y-85087744D01*
X151220069Y-84968997D01*
X151220067Y-84968993D01*
X151143131Y-84849280D01*
X151143128Y-84849275D01*
X151048907Y-84740539D01*
X150948069Y-84653162D01*
X150944810Y-84650128D01*
X150941351Y-84647341D01*
X150941350Y-84647340D01*
X150820310Y-84569553D01*
X150820308Y-84569552D01*
X150820305Y-84569550D01*
X150690852Y-84510432D01*
X150575286Y-84476500D01*
X150552808Y-84469900D01*
X150552806Y-84469899D01*
X150552804Y-84469899D01*
X150552801Y-84469898D01*
X150424548Y-84451458D01*
X150420989Y-84450759D01*
X150411939Y-84449645D01*
X150411938Y-84449645D01*
X150411936Y-84449645D01*
X150268055Y-84449645D01*
X150127198Y-84469898D01*
X150127195Y-84469899D01*
X149989150Y-84510431D01*
X149859686Y-84569555D01*
X149859680Y-84569558D01*
X149738655Y-84647337D01*
X149738643Y-84647346D01*
X149631099Y-84740533D01*
X149631087Y-84740545D01*
X149536875Y-84849270D01*
X149536868Y-84849280D01*
X149462338Y-84965250D01*
X149460137Y-84968543D01*
X149400163Y-85099867D01*
X149400161Y-85099873D01*
X149400160Y-85099876D01*
X149382140Y-85161245D01*
X149360064Y-85236429D01*
X149350925Y-85300000D01*
X149339589Y-85378843D01*
X94500500Y-85378843D01*
X94500500Y-79896535D01*
X99449500Y-79896535D01*
X99449500Y-80103465D01*
X99472680Y-80220000D01*
X99489870Y-80306421D01*
X99569056Y-80497593D01*
X99569062Y-80497603D01*
X99684018Y-80669649D01*
X99684020Y-80669651D01*
X99684023Y-80669655D01*
X99830345Y-80815977D01*
X99830348Y-80815979D01*
X99830350Y-80815981D01*
X100002396Y-80930937D01*
X100002402Y-80930941D01*
X100002404Y-80930941D01*
X100002406Y-80930943D01*
X100124391Y-80981471D01*
X100193580Y-81010130D01*
X100396535Y-81050500D01*
X100396537Y-81050500D01*
X100603463Y-81050500D01*
X100603465Y-81050500D01*
X100806420Y-81010130D01*
X100997598Y-80930941D01*
X101169655Y-80815977D01*
X101315977Y-80669655D01*
X101430941Y-80497598D01*
X101510130Y-80306420D01*
X101550500Y-80103465D01*
X101550500Y-79896535D01*
X106449500Y-79896535D01*
X106449500Y-80103465D01*
X106472680Y-80220000D01*
X106489870Y-80306421D01*
X106569056Y-80497593D01*
X106569062Y-80497603D01*
X106684018Y-80669649D01*
X106684020Y-80669651D01*
X106684023Y-80669655D01*
X106830345Y-80815977D01*
X106830348Y-80815979D01*
X106830350Y-80815981D01*
X107002396Y-80930937D01*
X107002402Y-80930941D01*
X107002404Y-80930941D01*
X107002406Y-80930943D01*
X107124391Y-80981471D01*
X107193580Y-81010130D01*
X107396535Y-81050500D01*
X107396537Y-81050500D01*
X107603463Y-81050500D01*
X107603465Y-81050500D01*
X107806420Y-81010130D01*
X107997598Y-80930941D01*
X108169655Y-80815977D01*
X108315977Y-80669655D01*
X108430941Y-80497598D01*
X108510130Y-80306420D01*
X108550500Y-80103465D01*
X108550500Y-79941963D01*
X117699500Y-79941963D01*
X117699500Y-82058031D01*
X117699501Y-82058043D01*
X117710113Y-82177414D01*
X117710113Y-82177417D01*
X117710114Y-82177418D01*
X117733760Y-82260055D01*
X117766090Y-82373045D01*
X117766093Y-82373053D01*
X117849801Y-82533305D01*
X117860302Y-82553407D01*
X117988891Y-82711109D01*
X118146593Y-82839698D01*
X118326951Y-82933909D01*
X118522582Y-82989886D01*
X118641963Y-83000500D01*
X120747018Y-83000499D01*
X120842306Y-83019453D01*
X120923088Y-83073429D01*
X120977064Y-83154211D01*
X120996018Y-83249499D01*
X120977064Y-83344787D01*
X120973416Y-83353075D01*
X120973261Y-83353503D01*
X120914365Y-83573305D01*
X120914363Y-83573320D01*
X120894532Y-83799994D01*
X120894532Y-83800005D01*
X120914363Y-84026679D01*
X120914365Y-84026694D01*
X120973261Y-84246496D01*
X120973262Y-84246499D01*
X121069428Y-84452727D01*
X121069436Y-84452741D01*
X121199949Y-84639134D01*
X121199953Y-84639139D01*
X121360861Y-84800047D01*
X121360864Y-84800049D01*
X121360865Y-84800050D01*
X121547258Y-84930563D01*
X121547262Y-84930565D01*
X121547266Y-84930568D01*
X121547270Y-84930569D01*
X121547272Y-84930571D01*
X121621641Y-84965250D01*
X121753504Y-85026739D01*
X121973308Y-85085635D01*
X121992984Y-85087356D01*
X122199994Y-85105468D01*
X122200000Y-85105468D01*
X122200006Y-85105468D01*
X122402780Y-85087727D01*
X122426692Y-85085635D01*
X122646496Y-85026739D01*
X122794769Y-84957597D01*
X122889137Y-84934505D01*
X122985162Y-84949284D01*
X123005220Y-84957592D01*
X123153504Y-85026739D01*
X123373308Y-85085635D01*
X123392984Y-85087356D01*
X123599994Y-85105468D01*
X123600000Y-85105468D01*
X123600006Y-85105468D01*
X123802780Y-85087727D01*
X123826692Y-85085635D01*
X124046496Y-85026739D01*
X124252734Y-84930568D01*
X124439139Y-84800047D01*
X124600047Y-84639139D01*
X124730568Y-84452734D01*
X124826739Y-84246496D01*
X124885635Y-84026692D01*
X124897544Y-83890571D01*
X124905468Y-83800005D01*
X124905468Y-83799994D01*
X124885636Y-83573320D01*
X124885635Y-83573308D01*
X124826739Y-83353504D01*
X124757597Y-83205230D01*
X124734505Y-83110863D01*
X124749284Y-83014838D01*
X124757592Y-82994779D01*
X124826739Y-82846496D01*
X124885635Y-82626692D01*
X124896719Y-82500000D01*
X124905468Y-82400005D01*
X124905468Y-82399994D01*
X124885636Y-82173320D01*
X124885635Y-82173308D01*
X124826739Y-81953504D01*
X124730568Y-81747266D01*
X124730565Y-81747262D01*
X124730563Y-81747258D01*
X124600050Y-81560865D01*
X124600049Y-81560864D01*
X124600047Y-81560861D01*
X124439139Y-81399953D01*
X124439135Y-81399950D01*
X124439134Y-81399949D01*
X124252741Y-81269436D01*
X124252727Y-81269428D01*
X124046499Y-81173262D01*
X124046496Y-81173261D01*
X123826694Y-81114365D01*
X123826679Y-81114363D01*
X123600006Y-81094532D01*
X123599994Y-81094532D01*
X123373320Y-81114363D01*
X123373305Y-81114365D01*
X123153506Y-81173260D01*
X123153403Y-81173308D01*
X123046814Y-81223012D01*
X123005232Y-81242402D01*
X122910861Y-81265494D01*
X122814837Y-81250715D01*
X122794768Y-81242402D01*
X122646496Y-81173261D01*
X122646493Y-81173260D01*
X122426694Y-81114365D01*
X122426679Y-81114363D01*
X122200006Y-81094532D01*
X122200004Y-81094532D01*
X122200001Y-81094532D01*
X122200000Y-81094532D01*
X122096851Y-81103556D01*
X121971200Y-81114549D01*
X121874622Y-81103971D01*
X121789444Y-81057241D01*
X121743504Y-81000000D01*
X125794859Y-81000000D01*
X125815387Y-81247741D01*
X125815389Y-81247748D01*
X125876410Y-81488714D01*
X125876413Y-81488722D01*
X125976266Y-81716364D01*
X126076564Y-81869881D01*
X126817037Y-81129408D01*
X126834075Y-81192993D01*
X126899901Y-81307007D01*
X126992993Y-81400099D01*
X127107007Y-81465925D01*
X127170589Y-81482962D01*
X126429942Y-82223610D01*
X126476766Y-82260054D01*
X126476770Y-82260057D01*
X126695388Y-82378366D01*
X126695390Y-82378367D01*
X126930509Y-82459083D01*
X126930512Y-82459084D01*
X127175706Y-82500000D01*
X127424294Y-82500000D01*
X127669487Y-82459084D01*
X127669490Y-82459083D01*
X127904607Y-82378368D01*
X128123230Y-82260055D01*
X128123238Y-82260050D01*
X128170056Y-82223610D01*
X127429408Y-81482962D01*
X127492993Y-81465925D01*
X127607007Y-81400099D01*
X127700099Y-81307007D01*
X127765925Y-81192993D01*
X127782962Y-81129408D01*
X128523435Y-81869881D01*
X128623731Y-81716368D01*
X128723586Y-81488722D01*
X128723589Y-81488714D01*
X128784610Y-81247748D01*
X128784612Y-81247741D01*
X128805140Y-81000000D01*
X128784612Y-80752258D01*
X128784610Y-80752251D01*
X128723589Y-80511285D01*
X128723586Y-80511277D01*
X128623730Y-80283628D01*
X128523435Y-80130117D01*
X127782962Y-80870589D01*
X127765925Y-80807007D01*
X127700099Y-80692993D01*
X127607007Y-80599901D01*
X127492993Y-80534075D01*
X127429407Y-80517037D01*
X128004481Y-79941963D01*
X130699500Y-79941963D01*
X130699500Y-82058031D01*
X130699501Y-82058043D01*
X130710113Y-82177414D01*
X130710113Y-82177417D01*
X130710114Y-82177418D01*
X130733760Y-82260055D01*
X130766090Y-82373045D01*
X130766093Y-82373053D01*
X130849801Y-82533305D01*
X130860302Y-82553407D01*
X130988891Y-82711109D01*
X131146593Y-82839698D01*
X131326951Y-82933909D01*
X131522582Y-82989886D01*
X131641963Y-83000500D01*
X133758036Y-83000499D01*
X133877418Y-82989886D01*
X134073049Y-82933909D01*
X134253407Y-82839698D01*
X134411109Y-82711109D01*
X134539698Y-82553407D01*
X134633909Y-82373049D01*
X134689886Y-82177418D01*
X134700500Y-82058037D01*
X134700499Y-81000000D01*
X138794859Y-81000000D01*
X138815387Y-81247741D01*
X138815389Y-81247748D01*
X138876410Y-81488714D01*
X138876413Y-81488722D01*
X138976266Y-81716364D01*
X139076564Y-81869881D01*
X139817037Y-81129408D01*
X139834075Y-81192993D01*
X139899901Y-81307007D01*
X139992993Y-81400099D01*
X140107007Y-81465925D01*
X140170589Y-81482962D01*
X139429942Y-82223610D01*
X139476766Y-82260054D01*
X139476770Y-82260057D01*
X139695388Y-82378366D01*
X139695390Y-82378367D01*
X139930509Y-82459083D01*
X139930512Y-82459084D01*
X140175706Y-82500000D01*
X140424294Y-82500000D01*
X140669487Y-82459084D01*
X140669490Y-82459083D01*
X140904607Y-82378368D01*
X141123230Y-82260055D01*
X141123238Y-82260050D01*
X141170056Y-82223610D01*
X140429408Y-81482962D01*
X140492993Y-81465925D01*
X140607007Y-81400099D01*
X140700099Y-81307007D01*
X140765925Y-81192993D01*
X140782962Y-81129408D01*
X141523435Y-81869881D01*
X141623731Y-81716368D01*
X141723586Y-81488722D01*
X141723589Y-81488714D01*
X141746056Y-81399994D01*
X164694532Y-81399994D01*
X164694532Y-81400005D01*
X164714363Y-81626679D01*
X164714365Y-81626694D01*
X164773261Y-81846496D01*
X164773262Y-81846499D01*
X164869428Y-82052727D01*
X164869436Y-82052741D01*
X164999949Y-82239134D01*
X164999953Y-82239139D01*
X165099572Y-82338758D01*
X165153546Y-82419537D01*
X165172500Y-82514825D01*
X165172500Y-84985175D01*
X165153546Y-85080463D01*
X165099572Y-85161241D01*
X165041386Y-85219428D01*
X164999949Y-85260865D01*
X164869436Y-85447258D01*
X164869428Y-85447272D01*
X164773262Y-85653500D01*
X164773261Y-85653503D01*
X164714365Y-85873305D01*
X164714363Y-85873320D01*
X164694532Y-86099994D01*
X164694532Y-86100005D01*
X164714363Y-86326679D01*
X164714365Y-86326694D01*
X164773261Y-86546496D01*
X164773262Y-86546499D01*
X164869428Y-86752727D01*
X164869436Y-86752741D01*
X164945043Y-86860719D01*
X164999953Y-86939139D01*
X165160861Y-87100047D01*
X165160864Y-87100049D01*
X165160865Y-87100050D01*
X165347258Y-87230563D01*
X165347262Y-87230565D01*
X165347266Y-87230568D01*
X165553504Y-87326739D01*
X165773308Y-87385635D01*
X165792984Y-87387356D01*
X165999994Y-87405468D01*
X166000000Y-87405468D01*
X166000006Y-87405468D01*
X166179668Y-87389749D01*
X166226692Y-87385635D01*
X166446496Y-87326739D01*
X166652734Y-87230568D01*
X166839139Y-87100047D01*
X167000047Y-86939139D01*
X167130568Y-86752734D01*
X167226739Y-86546496D01*
X167285635Y-86326692D01*
X167296909Y-86197832D01*
X167305468Y-86100005D01*
X167305468Y-86099994D01*
X167285636Y-85873320D01*
X167285635Y-85873308D01*
X167254856Y-85758442D01*
X167248502Y-85661496D01*
X167279731Y-85569497D01*
X167331510Y-85507793D01*
X167331451Y-85507734D01*
X167332125Y-85507059D01*
X167335329Y-85503242D01*
X167339121Y-85500059D01*
X167339139Y-85500047D01*
X167500047Y-85339139D01*
X167630568Y-85152734D01*
X167726739Y-84946496D01*
X167785635Y-84726692D01*
X167792068Y-84653166D01*
X167805468Y-84500005D01*
X167805468Y-84499995D01*
X167794362Y-84373061D01*
X167789515Y-84317659D01*
X167800091Y-84221083D01*
X167846821Y-84135905D01*
X167922591Y-84075093D01*
X168015864Y-84047906D01*
X168059266Y-84047906D01*
X168164152Y-84057082D01*
X168259996Y-84065468D01*
X168260000Y-84065468D01*
X168260006Y-84065468D01*
X168460734Y-84047906D01*
X168486692Y-84045635D01*
X168706496Y-83986739D01*
X168912734Y-83890568D01*
X169099139Y-83760047D01*
X169260047Y-83599139D01*
X169390568Y-83412734D01*
X169486739Y-83206496D01*
X169545635Y-82986692D01*
X169558495Y-82839700D01*
X169565468Y-82760005D01*
X169565468Y-82759994D01*
X169545636Y-82533320D01*
X169545635Y-82533308D01*
X169486739Y-82313504D01*
X169390568Y-82107266D01*
X169390565Y-82107262D01*
X169390563Y-82107258D01*
X169260050Y-81920865D01*
X169260049Y-81920864D01*
X169260047Y-81920861D01*
X169099139Y-81759953D01*
X169099135Y-81759950D01*
X169099134Y-81759949D01*
X168912741Y-81629436D01*
X168912727Y-81629428D01*
X168706499Y-81533262D01*
X168706496Y-81533261D01*
X168486694Y-81474365D01*
X168486679Y-81474363D01*
X168260006Y-81454532D01*
X168259994Y-81454532D01*
X168033320Y-81474363D01*
X168033305Y-81474365D01*
X167813503Y-81533261D01*
X167658873Y-81605366D01*
X167564502Y-81628458D01*
X167468478Y-81613678D01*
X167385419Y-81563276D01*
X167327971Y-81484926D01*
X167305589Y-81401396D01*
X167305467Y-81400006D01*
X167305468Y-81400000D01*
X167285635Y-81173308D01*
X167226739Y-80953504D01*
X167130568Y-80747266D01*
X167130565Y-80747262D01*
X167130563Y-80747258D01*
X167000050Y-80560865D01*
X167000049Y-80560864D01*
X167000047Y-80560861D01*
X166839139Y-80399953D01*
X166839135Y-80399950D01*
X166839134Y-80399949D01*
X166652741Y-80269436D01*
X166652727Y-80269428D01*
X166446499Y-80173262D01*
X166446496Y-80173261D01*
X166226694Y-80114365D01*
X166226679Y-80114363D01*
X166000006Y-80094532D01*
X165999994Y-80094532D01*
X165773320Y-80114363D01*
X165773305Y-80114365D01*
X165553503Y-80173261D01*
X165553500Y-80173262D01*
X165347272Y-80269428D01*
X165347258Y-80269436D01*
X165160865Y-80399949D01*
X164999949Y-80560865D01*
X164869436Y-80747258D01*
X164869428Y-80747272D01*
X164773262Y-80953500D01*
X164773261Y-80953503D01*
X164714365Y-81173305D01*
X164714363Y-81173320D01*
X164694532Y-81399994D01*
X141746056Y-81399994D01*
X141784610Y-81247748D01*
X141784612Y-81247741D01*
X141805140Y-81000000D01*
X141784612Y-80752258D01*
X141784610Y-80752251D01*
X141723589Y-80511285D01*
X141723586Y-80511277D01*
X141623730Y-80283628D01*
X141523435Y-80130117D01*
X140782962Y-80870589D01*
X140765925Y-80807007D01*
X140700099Y-80692993D01*
X140607007Y-80599901D01*
X140492993Y-80534075D01*
X140429407Y-80517037D01*
X141170056Y-79776388D01*
X141123241Y-79739951D01*
X141123230Y-79739944D01*
X140904607Y-79621631D01*
X140669490Y-79540916D01*
X140669487Y-79540915D01*
X140424294Y-79500000D01*
X140175706Y-79500000D01*
X139930512Y-79540915D01*
X139930509Y-79540916D01*
X139695392Y-79621631D01*
X139476768Y-79739944D01*
X139476758Y-79739951D01*
X139429941Y-79776388D01*
X140170590Y-80517037D01*
X140107007Y-80534075D01*
X139992993Y-80599901D01*
X139899901Y-80692993D01*
X139834075Y-80807007D01*
X139817037Y-80870591D01*
X139076563Y-80130117D01*
X138976268Y-80283630D01*
X138976268Y-80283631D01*
X138876413Y-80511277D01*
X138876410Y-80511285D01*
X138815389Y-80752251D01*
X138815387Y-80752258D01*
X138794859Y-81000000D01*
X134700499Y-81000000D01*
X134700499Y-79941964D01*
X134689886Y-79822582D01*
X134633909Y-79626951D01*
X134539698Y-79446593D01*
X134411109Y-79288891D01*
X134253407Y-79160302D01*
X134253402Y-79160299D01*
X134073053Y-79066093D01*
X134073052Y-79066092D01*
X134073049Y-79066091D01*
X133877418Y-79010114D01*
X133758037Y-78999500D01*
X133758035Y-78999500D01*
X131641968Y-78999500D01*
X131641956Y-78999501D01*
X131522585Y-79010113D01*
X131326954Y-79066090D01*
X131326946Y-79066093D01*
X131146597Y-79160299D01*
X131146592Y-79160302D01*
X130988893Y-79288889D01*
X130988889Y-79288893D01*
X130860302Y-79446592D01*
X130860299Y-79446597D01*
X130766093Y-79626946D01*
X130766090Y-79626954D01*
X130710115Y-79822578D01*
X130710114Y-79822582D01*
X130699500Y-79941963D01*
X128004481Y-79941963D01*
X128170056Y-79776388D01*
X128123241Y-79739951D01*
X128123230Y-79739944D01*
X127904607Y-79621631D01*
X127669490Y-79540916D01*
X127669487Y-79540915D01*
X127424294Y-79500000D01*
X127175706Y-79500000D01*
X126930512Y-79540915D01*
X126930509Y-79540916D01*
X126695392Y-79621631D01*
X126476768Y-79739944D01*
X126476758Y-79739951D01*
X126429941Y-79776388D01*
X127170590Y-80517037D01*
X127107007Y-80534075D01*
X126992993Y-80599901D01*
X126899901Y-80692993D01*
X126834075Y-80807007D01*
X126817037Y-80870591D01*
X126076563Y-80130117D01*
X125976268Y-80283630D01*
X125976268Y-80283631D01*
X125876413Y-80511277D01*
X125876410Y-80511285D01*
X125815389Y-80752251D01*
X125815387Y-80752258D01*
X125794859Y-81000000D01*
X121743504Y-81000000D01*
X121728633Y-80981471D01*
X121701446Y-80888197D01*
X121700499Y-80866496D01*
X121700499Y-79941968D01*
X121700498Y-79941956D01*
X121690584Y-79830441D01*
X121689886Y-79822582D01*
X121633909Y-79626951D01*
X121539698Y-79446593D01*
X121411109Y-79288891D01*
X121253407Y-79160302D01*
X121253402Y-79160299D01*
X121073053Y-79066093D01*
X121073052Y-79066092D01*
X121073049Y-79066091D01*
X120877418Y-79010114D01*
X120758037Y-78999500D01*
X120758035Y-78999500D01*
X118641968Y-78999500D01*
X118641956Y-78999501D01*
X118522585Y-79010113D01*
X118326954Y-79066090D01*
X118326946Y-79066093D01*
X118146597Y-79160299D01*
X118146592Y-79160302D01*
X117988893Y-79288889D01*
X117988889Y-79288893D01*
X117860302Y-79446592D01*
X117860299Y-79446597D01*
X117766093Y-79626946D01*
X117766090Y-79626954D01*
X117710115Y-79822578D01*
X117710114Y-79822582D01*
X117699500Y-79941963D01*
X108550500Y-79941963D01*
X108550500Y-79896535D01*
X108510130Y-79693580D01*
X108450957Y-79550725D01*
X108430943Y-79502406D01*
X108430937Y-79502396D01*
X108315981Y-79330350D01*
X108315979Y-79330348D01*
X108315977Y-79330345D01*
X108169655Y-79184023D01*
X108169651Y-79184020D01*
X108169649Y-79184018D01*
X107997603Y-79069062D01*
X107997593Y-79069056D01*
X107806421Y-78989870D01*
X107738768Y-78976413D01*
X107603465Y-78949500D01*
X107396535Y-78949500D01*
X107295057Y-78969685D01*
X107193578Y-78989870D01*
X107002406Y-79069056D01*
X107002396Y-79069062D01*
X106830350Y-79184018D01*
X106684018Y-79330350D01*
X106569062Y-79502396D01*
X106569056Y-79502406D01*
X106489870Y-79693578D01*
X106464211Y-79822578D01*
X106449500Y-79896535D01*
X101550500Y-79896535D01*
X101510130Y-79693580D01*
X101450957Y-79550725D01*
X101430943Y-79502406D01*
X101430937Y-79502396D01*
X101315981Y-79330350D01*
X101315979Y-79330348D01*
X101315977Y-79330345D01*
X101169655Y-79184023D01*
X101169651Y-79184020D01*
X101169649Y-79184018D01*
X100997603Y-79069062D01*
X100997593Y-79069056D01*
X100806421Y-78989870D01*
X100738768Y-78976413D01*
X100603465Y-78949500D01*
X100396535Y-78949500D01*
X100295057Y-78969685D01*
X100193578Y-78989870D01*
X100002406Y-79069056D01*
X100002396Y-79069062D01*
X99830350Y-79184018D01*
X99684018Y-79330350D01*
X99569062Y-79502396D01*
X99569056Y-79502406D01*
X99489870Y-79693578D01*
X99464211Y-79822578D01*
X99449500Y-79896535D01*
X94500500Y-79896535D01*
X94500500Y-78878843D01*
X142659589Y-78878843D01*
X142659589Y-79021157D01*
X142666050Y-79066093D01*
X142680064Y-79163570D01*
X142680065Y-79163573D01*
X142720160Y-79300124D01*
X142720161Y-79300125D01*
X142721192Y-79303636D01*
X142725703Y-79312262D01*
X142755224Y-79376903D01*
X142779930Y-79431002D01*
X142779932Y-79431006D01*
X142825819Y-79502406D01*
X142856872Y-79550725D01*
X142951093Y-79659461D01*
X143043983Y-79739951D01*
X143051926Y-79746833D01*
X143055189Y-79749871D01*
X143058642Y-79752653D01*
X143058648Y-79752658D01*
X143058650Y-79752660D01*
X143179690Y-79830447D01*
X143309144Y-79889566D01*
X143309146Y-79889566D01*
X143309147Y-79889567D01*
X143332882Y-79896536D01*
X143447192Y-79930100D01*
X143575472Y-79948544D01*
X143579024Y-79949242D01*
X143588028Y-79950349D01*
X143588058Y-79950354D01*
X143588062Y-79950355D01*
X143731942Y-79950354D01*
X143731944Y-79950354D01*
X143872801Y-79930101D01*
X143872800Y-79930101D01*
X143872808Y-79930100D01*
X144010856Y-79889566D01*
X144140310Y-79830447D01*
X144140312Y-79830446D01*
X144261352Y-79752658D01*
X144368907Y-79659461D01*
X144463128Y-79550725D01*
X144537667Y-79434739D01*
X144539865Y-79431450D01*
X144586039Y-79330345D01*
X144599840Y-79300124D01*
X144639935Y-79163573D01*
X144660411Y-79021157D01*
X144660411Y-78878843D01*
X144639935Y-78736427D01*
X144599840Y-78599876D01*
X144599839Y-78599875D01*
X144599837Y-78599871D01*
X144598808Y-78596366D01*
X144594299Y-78587744D01*
X144540069Y-78468997D01*
X144540067Y-78468993D01*
X144463131Y-78349280D01*
X144463128Y-78349275D01*
X144368907Y-78240539D01*
X144268069Y-78153162D01*
X144264810Y-78150128D01*
X144261351Y-78147341D01*
X144261350Y-78147340D01*
X144140310Y-78069553D01*
X144140308Y-78069552D01*
X144140305Y-78069550D01*
X144010852Y-78010432D01*
X143896892Y-77976971D01*
X143872808Y-77969900D01*
X143872806Y-77969899D01*
X143872804Y-77969899D01*
X143872801Y-77969898D01*
X143744548Y-77951458D01*
X143740989Y-77950759D01*
X143731939Y-77949645D01*
X143731938Y-77949645D01*
X143731936Y-77949645D01*
X143588055Y-77949645D01*
X143447198Y-77969898D01*
X143447195Y-77969899D01*
X143309150Y-78010431D01*
X143179686Y-78069555D01*
X143179680Y-78069558D01*
X143058655Y-78147337D01*
X143058643Y-78147346D01*
X142951099Y-78240533D01*
X142951087Y-78240545D01*
X142856875Y-78349270D01*
X142856868Y-78349280D01*
X142782338Y-78465250D01*
X142780137Y-78468543D01*
X142720163Y-78599867D01*
X142720161Y-78599873D01*
X142720161Y-78599875D01*
X142680064Y-78736429D01*
X142667626Y-78822944D01*
X142659589Y-78878843D01*
X94500500Y-78878843D01*
X94500500Y-77680000D01*
X170354773Y-77680000D01*
X170373657Y-77944027D01*
X170385897Y-78000293D01*
X170429923Y-78202678D01*
X170444047Y-78240545D01*
X170522425Y-78450687D01*
X170522427Y-78450691D01*
X170603888Y-78599876D01*
X170649284Y-78683011D01*
X170737444Y-78800779D01*
X170737445Y-78800780D01*
X170779375Y-78888421D01*
X170784576Y-78985436D01*
X170752254Y-79077057D01*
X170737445Y-79099220D01*
X170649284Y-79216989D01*
X170649280Y-79216995D01*
X170522427Y-79449308D01*
X170522425Y-79449312D01*
X170484599Y-79550729D01*
X170429923Y-79697322D01*
X170402674Y-79822585D01*
X170373657Y-79955972D01*
X170354773Y-80220000D01*
X170371044Y-80447500D01*
X170373657Y-80484026D01*
X170429923Y-80742678D01*
X170457262Y-80815977D01*
X170522425Y-80990687D01*
X170522427Y-80990691D01*
X170622150Y-81173320D01*
X170649284Y-81223011D01*
X170737444Y-81340779D01*
X170737445Y-81340780D01*
X170779375Y-81428421D01*
X170784576Y-81525436D01*
X170752254Y-81617057D01*
X170737448Y-81639214D01*
X170656569Y-81747258D01*
X170649284Y-81756989D01*
X170649280Y-81756995D01*
X170522427Y-81989308D01*
X170522425Y-81989312D01*
X170496790Y-82058043D01*
X170429923Y-82237322D01*
X170398137Y-82383440D01*
X170373657Y-82495972D01*
X170354773Y-82760000D01*
X170371044Y-82987500D01*
X170373657Y-83024026D01*
X170429923Y-83282678D01*
X170478429Y-83412727D01*
X170522425Y-83530687D01*
X170522427Y-83530691D01*
X170647665Y-83760047D01*
X170649284Y-83763011D01*
X170807913Y-83974915D01*
X170837253Y-84004255D01*
X170891227Y-84085034D01*
X170910181Y-84180322D01*
X170894482Y-84267337D01*
X170866403Y-84342618D01*
X170866401Y-84342628D01*
X170860000Y-84402167D01*
X170860000Y-85049999D01*
X170860001Y-85050000D01*
X171776988Y-85050000D01*
X171744075Y-85107007D01*
X171710000Y-85234174D01*
X171710000Y-85365826D01*
X171744075Y-85492993D01*
X171776988Y-85550000D01*
X170860001Y-85550000D01*
X170860000Y-85550001D01*
X170860000Y-86197832D01*
X170866401Y-86257371D01*
X170866403Y-86257378D01*
X170916646Y-86392087D01*
X171002810Y-86507187D01*
X171002812Y-86507189D01*
X171117912Y-86593353D01*
X171252621Y-86643596D01*
X171252628Y-86643598D01*
X171312167Y-86649999D01*
X171312175Y-86650000D01*
X171959999Y-86650000D01*
X171960000Y-86649999D01*
X171960000Y-85733012D01*
X172017007Y-85765925D01*
X172144174Y-85800000D01*
X172275826Y-85800000D01*
X172402993Y-85765925D01*
X172460000Y-85733012D01*
X172460000Y-86649999D01*
X172460001Y-86650000D01*
X173107825Y-86650000D01*
X173107832Y-86649999D01*
X173167371Y-86643598D01*
X173167375Y-86643597D01*
X173242658Y-86615518D01*
X173338562Y-86599977D01*
X173433113Y-86622319D01*
X173505743Y-86672745D01*
X173535085Y-86702087D01*
X173746989Y-86860716D01*
X173979311Y-86987574D01*
X174227322Y-87080077D01*
X174485974Y-87136343D01*
X174750000Y-87155227D01*
X175014026Y-87136343D01*
X175272678Y-87080077D01*
X175520689Y-86987574D01*
X175753011Y-86860716D01*
X175964915Y-86702087D01*
X176152087Y-86514915D01*
X176310716Y-86303011D01*
X176437574Y-86070689D01*
X176530077Y-85822678D01*
X176586343Y-85564026D01*
X176605227Y-85300000D01*
X176586343Y-85035974D01*
X176530077Y-84777322D01*
X176493895Y-84680314D01*
X176450332Y-84563515D01*
X176434792Y-84467611D01*
X176457135Y-84373061D01*
X176513961Y-84294257D01*
X176596618Y-84243199D01*
X176683633Y-84227500D01*
X177251000Y-84227500D01*
X177346288Y-84246454D01*
X177427070Y-84300430D01*
X177481046Y-84381212D01*
X177500000Y-84476500D01*
X177500000Y-85049999D01*
X177500001Y-85050000D01*
X178416988Y-85050000D01*
X178384075Y-85107007D01*
X178350000Y-85234174D01*
X178350000Y-85365826D01*
X178384075Y-85492993D01*
X178416988Y-85550000D01*
X177500001Y-85550000D01*
X177500000Y-85550001D01*
X177500000Y-86197832D01*
X177506401Y-86257371D01*
X177506403Y-86257378D01*
X177556646Y-86392087D01*
X177642810Y-86507187D01*
X177642812Y-86507189D01*
X177757912Y-86593353D01*
X177892621Y-86643596D01*
X177892628Y-86643598D01*
X177952167Y-86649999D01*
X177952175Y-86650000D01*
X178599999Y-86650000D01*
X178600000Y-86649999D01*
X178600000Y-85733012D01*
X178657007Y-85765925D01*
X178784174Y-85800000D01*
X178915826Y-85800000D01*
X179042993Y-85765925D01*
X179100000Y-85733012D01*
X179100000Y-86649999D01*
X179100001Y-86650000D01*
X179747825Y-86650000D01*
X179747832Y-86649999D01*
X179807371Y-86643598D01*
X179807375Y-86643597D01*
X179882658Y-86615518D01*
X179978562Y-86599977D01*
X180073113Y-86622319D01*
X180145743Y-86672745D01*
X180175085Y-86702087D01*
X180386989Y-86860716D01*
X180619311Y-86987574D01*
X180867322Y-87080077D01*
X181125974Y-87136343D01*
X181390000Y-87155227D01*
X181654026Y-87136343D01*
X181912678Y-87080077D01*
X182160689Y-86987574D01*
X182393011Y-86860716D01*
X182604915Y-86702087D01*
X182792087Y-86514915D01*
X182950716Y-86303011D01*
X183077574Y-86070689D01*
X183170077Y-85822678D01*
X183226343Y-85564026D01*
X183245227Y-85300000D01*
X183226343Y-85035974D01*
X183170077Y-84777322D01*
X183077574Y-84529311D01*
X182950716Y-84296989D01*
X182862552Y-84179216D01*
X182820624Y-84091581D01*
X182815423Y-83994565D01*
X182847745Y-83902944D01*
X182862545Y-83880793D01*
X182950716Y-83763011D01*
X183077574Y-83530689D01*
X183170077Y-83282678D01*
X183226343Y-83024026D01*
X183245227Y-82760000D01*
X183226343Y-82495974D01*
X183170077Y-82237322D01*
X183077574Y-81989311D01*
X182950716Y-81756989D01*
X182862552Y-81639216D01*
X182820624Y-81551581D01*
X182815423Y-81454565D01*
X182847745Y-81362944D01*
X182862545Y-81340793D01*
X182950716Y-81223011D01*
X183077574Y-80990689D01*
X183170077Y-80742678D01*
X183226343Y-80484026D01*
X183245227Y-80220000D01*
X183226343Y-79955974D01*
X183170077Y-79697322D01*
X183077574Y-79449311D01*
X182950716Y-79216989D01*
X182862552Y-79099216D01*
X182820624Y-79011581D01*
X182815423Y-78914565D01*
X182847745Y-78822944D01*
X182862545Y-78800793D01*
X182950716Y-78683011D01*
X183077574Y-78450689D01*
X183170077Y-78202678D01*
X183226343Y-77944026D01*
X183245227Y-77680000D01*
X183226343Y-77415974D01*
X183170077Y-77157322D01*
X183077574Y-76909311D01*
X182950716Y-76676989D01*
X182792087Y-76465085D01*
X182604915Y-76277913D01*
X182393011Y-76119284D01*
X182367445Y-76105324D01*
X182160691Y-75992427D01*
X182160687Y-75992425D01*
X182051262Y-75951612D01*
X181912678Y-75899923D01*
X181710293Y-75855897D01*
X181654027Y-75843657D01*
X181390000Y-75824773D01*
X181125969Y-75843657D01*
X181026953Y-75865197D01*
X180929814Y-75866930D01*
X180839405Y-75831358D01*
X180797961Y-75797961D01*
X180500000Y-75500000D01*
X180499999Y-75500000D01*
X176603140Y-75500000D01*
X176507852Y-75481046D01*
X176427070Y-75427070D01*
X176072930Y-75072930D01*
X176018954Y-74992148D01*
X176000000Y-74896860D01*
X176000000Y-71390162D01*
X177034500Y-71390162D01*
X177034500Y-71609837D01*
X177068861Y-71826777D01*
X177068862Y-71826780D01*
X177136740Y-72035686D01*
X177236462Y-72231401D01*
X177365572Y-72409107D01*
X177520893Y-72564428D01*
X177698599Y-72693538D01*
X177894314Y-72793260D01*
X178103220Y-72861138D01*
X178179524Y-72873223D01*
X178320162Y-72895499D01*
X178320169Y-72895499D01*
X178320172Y-72895500D01*
X178320175Y-72895500D01*
X178539825Y-72895500D01*
X178539828Y-72895500D01*
X178539831Y-72895499D01*
X178539837Y-72895499D01*
X178642322Y-72879266D01*
X178756780Y-72861138D01*
X178965686Y-72793260D01*
X179161401Y-72693538D01*
X179339107Y-72564428D01*
X179494428Y-72409107D01*
X179623538Y-72231401D01*
X179723260Y-72035686D01*
X179791138Y-71826780D01*
X179809266Y-71712322D01*
X179825499Y-71609837D01*
X179825500Y-71609825D01*
X179825500Y-71390174D01*
X179825499Y-71390162D01*
X179791138Y-71173222D01*
X179791138Y-71173220D01*
X179723260Y-70964314D01*
X179623538Y-70768599D01*
X179494428Y-70590893D01*
X179339107Y-70435572D01*
X179161401Y-70306462D01*
X178965686Y-70206740D01*
X178965683Y-70206739D01*
X178965681Y-70206738D01*
X178756777Y-70138861D01*
X178539837Y-70104500D01*
X178539828Y-70104500D01*
X178320172Y-70104500D01*
X178320162Y-70104500D01*
X178103222Y-70138861D01*
X177894318Y-70206738D01*
X177698599Y-70306462D01*
X177520891Y-70435573D01*
X177365573Y-70590891D01*
X177325140Y-70646543D01*
X177236462Y-70768599D01*
X177145431Y-70947258D01*
X177136738Y-70964318D01*
X177068861Y-71173222D01*
X177034500Y-71390162D01*
X176000000Y-71390162D01*
X176000000Y-68000000D01*
X175999999Y-67999999D01*
X175100721Y-67100720D01*
X175046745Y-67019939D01*
X175036275Y-66989094D01*
X175026738Y-66953503D01*
X174955135Y-66799949D01*
X174930571Y-66747272D01*
X174930563Y-66747258D01*
X174800050Y-66560865D01*
X174800049Y-66560864D01*
X174800047Y-66560861D01*
X174639139Y-66399953D01*
X174639135Y-66399950D01*
X174639134Y-66399949D01*
X174452741Y-66269436D01*
X174452727Y-66269428D01*
X174246499Y-66173262D01*
X174246496Y-66173261D01*
X174026694Y-66114365D01*
X174026679Y-66114363D01*
X173800006Y-66094532D01*
X173799994Y-66094532D01*
X173573320Y-66114363D01*
X173573305Y-66114365D01*
X173353503Y-66173261D01*
X173353500Y-66173262D01*
X173147272Y-66269428D01*
X173147258Y-66269436D01*
X172960865Y-66399949D01*
X172799949Y-66560865D01*
X172669436Y-66747258D01*
X172669428Y-66747272D01*
X172573262Y-66953500D01*
X172573261Y-66953503D01*
X172514365Y-67173305D01*
X172514363Y-67173320D01*
X172494532Y-67399994D01*
X172494532Y-67400005D01*
X172514363Y-67626679D01*
X172514365Y-67626694D01*
X172573261Y-67846496D01*
X172573262Y-67846499D01*
X172669428Y-68052727D01*
X172669436Y-68052741D01*
X172799949Y-68239134D01*
X172799953Y-68239139D01*
X172927072Y-68366258D01*
X172981046Y-68447037D01*
X173000000Y-68542325D01*
X173000000Y-69500000D01*
X173427072Y-69927072D01*
X173481046Y-70007851D01*
X173500000Y-70103139D01*
X173500000Y-75856324D01*
X173481046Y-75951612D01*
X173427070Y-76032394D01*
X173346288Y-76086370D01*
X173251000Y-76105324D01*
X173155712Y-76086370D01*
X173131667Y-76074866D01*
X172980691Y-75992427D01*
X172980687Y-75992425D01*
X172871262Y-75951612D01*
X172732678Y-75899923D01*
X172530293Y-75855897D01*
X172474027Y-75843657D01*
X172210000Y-75824773D01*
X171945972Y-75843657D01*
X171838989Y-75866930D01*
X171687322Y-75899923D01*
X171646215Y-75915255D01*
X171439312Y-75992425D01*
X171439308Y-75992427D01*
X171206995Y-76119280D01*
X171206989Y-76119284D01*
X170995085Y-76277913D01*
X170995084Y-76277914D01*
X170807914Y-76465084D01*
X170807912Y-76465087D01*
X170649284Y-76676989D01*
X170649280Y-76676995D01*
X170522427Y-76909308D01*
X170522425Y-76909312D01*
X170456595Y-77085810D01*
X170429923Y-77157322D01*
X170398137Y-77303440D01*
X170373657Y-77415972D01*
X170354773Y-77680000D01*
X94500500Y-77680000D01*
X94500500Y-74999994D01*
X164094532Y-74999994D01*
X164094532Y-75000005D01*
X164114363Y-75226679D01*
X164114365Y-75226694D01*
X164173261Y-75446496D01*
X164173262Y-75446499D01*
X164269428Y-75652727D01*
X164269436Y-75652741D01*
X164399949Y-75839134D01*
X164399953Y-75839139D01*
X164560861Y-76000047D01*
X164560864Y-76000049D01*
X164560865Y-76000050D01*
X164747258Y-76130563D01*
X164747262Y-76130565D01*
X164747266Y-76130568D01*
X164953504Y-76226739D01*
X165173308Y-76285635D01*
X165192984Y-76287356D01*
X165399994Y-76305468D01*
X165400000Y-76305468D01*
X165400006Y-76305468D01*
X165579668Y-76289749D01*
X165626692Y-76285635D01*
X165846496Y-76226739D01*
X166052734Y-76130568D01*
X166239139Y-76000047D01*
X166323933Y-75915252D01*
X166404712Y-75861279D01*
X166500000Y-75842325D01*
X166595288Y-75861279D01*
X166676066Y-75915252D01*
X166760861Y-76000047D01*
X166760864Y-76000049D01*
X166760865Y-76000050D01*
X166947258Y-76130563D01*
X166947262Y-76130565D01*
X166947266Y-76130568D01*
X167153504Y-76226739D01*
X167373308Y-76285635D01*
X167392984Y-76287356D01*
X167599994Y-76305468D01*
X167600000Y-76305468D01*
X167600006Y-76305468D01*
X167779668Y-76289749D01*
X167826692Y-76285635D01*
X168046496Y-76226739D01*
X168252734Y-76130568D01*
X168439139Y-76000047D01*
X168600047Y-75839139D01*
X168730568Y-75652734D01*
X168826739Y-75446496D01*
X168885635Y-75226692D01*
X168890375Y-75172512D01*
X168905468Y-75000005D01*
X168905468Y-74999994D01*
X168885636Y-74773320D01*
X168885635Y-74773308D01*
X168826739Y-74553504D01*
X168730568Y-74347266D01*
X168730565Y-74347262D01*
X168730563Y-74347258D01*
X168600050Y-74160865D01*
X168600049Y-74160864D01*
X168600047Y-74160861D01*
X168439139Y-73999953D01*
X168439135Y-73999950D01*
X168439134Y-73999949D01*
X168252741Y-73869436D01*
X168252727Y-73869428D01*
X168046499Y-73773262D01*
X168046496Y-73773261D01*
X167826694Y-73714365D01*
X167826679Y-73714363D01*
X167600006Y-73694532D01*
X167599994Y-73694532D01*
X167373320Y-73714363D01*
X167373305Y-73714365D01*
X167153503Y-73773261D01*
X167153500Y-73773262D01*
X166947272Y-73869428D01*
X166947258Y-73869436D01*
X166760865Y-73999949D01*
X166760861Y-73999952D01*
X166760861Y-73999953D01*
X166676066Y-74084747D01*
X166595288Y-74138721D01*
X166500000Y-74157675D01*
X166404712Y-74138721D01*
X166323933Y-74084747D01*
X166239139Y-73999953D01*
X166239135Y-73999950D01*
X166239134Y-73999949D01*
X166052741Y-73869436D01*
X166052727Y-73869428D01*
X165846499Y-73773262D01*
X165846496Y-73773261D01*
X165626694Y-73714365D01*
X165626679Y-73714363D01*
X165400006Y-73694532D01*
X165399994Y-73694532D01*
X165173320Y-73714363D01*
X165173305Y-73714365D01*
X164953503Y-73773261D01*
X164953500Y-73773262D01*
X164747272Y-73869428D01*
X164747258Y-73869436D01*
X164560865Y-73999949D01*
X164399949Y-74160865D01*
X164269436Y-74347258D01*
X164269428Y-74347272D01*
X164173262Y-74553500D01*
X164173261Y-74553503D01*
X164114365Y-74773305D01*
X164114363Y-74773320D01*
X164094532Y-74999994D01*
X94500500Y-74999994D01*
X94500500Y-71373795D01*
X112974500Y-71373795D01*
X112974500Y-71626204D01*
X113007445Y-71876447D01*
X113072772Y-72120256D01*
X113072774Y-72120260D01*
X113169367Y-72353454D01*
X113201499Y-72409108D01*
X113295567Y-72572041D01*
X113295571Y-72572048D01*
X113317056Y-72600047D01*
X113449227Y-72772294D01*
X113627706Y-72950773D01*
X113827954Y-73104430D01*
X114046546Y-73230633D01*
X114279740Y-73327226D01*
X114279741Y-73327226D01*
X114279743Y-73327227D01*
X114310880Y-73335570D01*
X114523548Y-73392554D01*
X114711234Y-73417263D01*
X114773795Y-73425500D01*
X114773796Y-73425500D01*
X115026205Y-73425500D01*
X115067912Y-73420009D01*
X115276452Y-73392554D01*
X115520260Y-73327226D01*
X115753454Y-73230633D01*
X115972046Y-73104430D01*
X116172294Y-72950773D01*
X116350773Y-72772294D01*
X116504430Y-72572046D01*
X116630633Y-72353454D01*
X116727226Y-72120260D01*
X116792554Y-71876452D01*
X116825500Y-71626204D01*
X116825500Y-71373796D01*
X116792554Y-71123548D01*
X116727226Y-70879740D01*
X116630633Y-70646546D01*
X116504430Y-70427954D01*
X116481606Y-70398210D01*
X116417556Y-70314739D01*
X116350773Y-70227706D01*
X116172294Y-70049227D01*
X116100012Y-69993762D01*
X115972048Y-69895571D01*
X115972041Y-69895567D01*
X115897839Y-69852727D01*
X115753454Y-69769367D01*
X115573083Y-69694654D01*
X115520256Y-69672772D01*
X115372911Y-69633292D01*
X115276452Y-69607446D01*
X115276447Y-69607445D01*
X115276448Y-69607445D01*
X115026205Y-69574500D01*
X115026204Y-69574500D01*
X114773796Y-69574500D01*
X114773795Y-69574500D01*
X114523552Y-69607445D01*
X114279743Y-69672772D01*
X114163143Y-69721070D01*
X114046546Y-69769367D01*
X114046543Y-69769369D01*
X113827958Y-69895567D01*
X113827951Y-69895571D01*
X113627708Y-70049225D01*
X113449225Y-70227708D01*
X113295571Y-70427951D01*
X113295567Y-70427958D01*
X113204646Y-70585439D01*
X113169367Y-70646546D01*
X113153237Y-70685488D01*
X113072772Y-70879743D01*
X113007445Y-71123552D01*
X112974500Y-71373795D01*
X94500500Y-71373795D01*
X94500500Y-67972994D01*
X128294532Y-67972994D01*
X128294532Y-67973005D01*
X128314363Y-68199679D01*
X128314365Y-68199694D01*
X128373261Y-68419496D01*
X128373262Y-68419499D01*
X128469428Y-68625727D01*
X128469436Y-68625741D01*
X128591486Y-68800047D01*
X128599953Y-68812139D01*
X128760861Y-68973047D01*
X128760864Y-68973049D01*
X128760865Y-68973050D01*
X128947258Y-69103563D01*
X128947262Y-69103565D01*
X128947266Y-69103568D01*
X129153504Y-69199739D01*
X129212945Y-69215666D01*
X129300081Y-69258637D01*
X129364140Y-69331682D01*
X129395370Y-69423680D01*
X129397500Y-69456182D01*
X129397500Y-70116817D01*
X129378546Y-70212105D01*
X129324570Y-70292887D01*
X129243788Y-70346863D01*
X129212949Y-70357332D01*
X129153504Y-70373260D01*
X129153500Y-70373262D01*
X128947272Y-70469428D01*
X128947258Y-70469436D01*
X128760865Y-70599949D01*
X128599949Y-70760865D01*
X128469436Y-70947258D01*
X128469428Y-70947272D01*
X128373262Y-71153500D01*
X128373261Y-71153503D01*
X128314365Y-71373305D01*
X128314363Y-71373320D01*
X128294532Y-71599994D01*
X128294532Y-71600005D01*
X128314363Y-71826679D01*
X128314365Y-71826694D01*
X128373261Y-72046496D01*
X128373262Y-72046499D01*
X128469428Y-72252727D01*
X128469436Y-72252741D01*
X128578925Y-72409108D01*
X128599953Y-72439139D01*
X128760861Y-72600047D01*
X128760864Y-72600049D01*
X128760865Y-72600050D01*
X128947258Y-72730563D01*
X128947262Y-72730565D01*
X128947266Y-72730568D01*
X129153504Y-72826739D01*
X129373308Y-72885635D01*
X129392984Y-72887356D01*
X129599994Y-72905468D01*
X129600000Y-72905468D01*
X129600006Y-72905468D01*
X129779668Y-72889749D01*
X129826692Y-72885635D01*
X130035558Y-72829669D01*
X130132501Y-72823316D01*
X130164433Y-72829667D01*
X130373308Y-72885635D01*
X130392984Y-72887356D01*
X130599994Y-72905468D01*
X130600000Y-72905468D01*
X130600006Y-72905468D01*
X130779668Y-72889749D01*
X130826692Y-72885635D01*
X131046496Y-72826739D01*
X131252734Y-72730568D01*
X131439139Y-72600047D01*
X131600047Y-72439139D01*
X131730568Y-72252734D01*
X131826739Y-72046496D01*
X131885635Y-71826692D01*
X131890375Y-71772512D01*
X131905468Y-71600005D01*
X131905468Y-71599994D01*
X131885636Y-71373320D01*
X131885635Y-71373308D01*
X131826739Y-71153504D01*
X131730568Y-70947266D01*
X131730565Y-70947262D01*
X131730563Y-70947258D01*
X131600050Y-70760865D01*
X131600049Y-70760864D01*
X131600047Y-70760861D01*
X131439139Y-70599953D01*
X131439135Y-70599950D01*
X131439134Y-70599949D01*
X131252741Y-70469436D01*
X131252727Y-70469428D01*
X131046499Y-70373262D01*
X131046495Y-70373260D01*
X130987051Y-70357332D01*
X130899916Y-70314360D01*
X130835858Y-70241315D01*
X130804630Y-70149315D01*
X130802500Y-70116817D01*
X130802500Y-69456182D01*
X130821454Y-69360894D01*
X130875430Y-69280112D01*
X130956212Y-69226136D01*
X130987055Y-69215666D01*
X131046496Y-69199739D01*
X131252734Y-69103568D01*
X131439139Y-68973047D01*
X131600047Y-68812139D01*
X131730568Y-68625734D01*
X131826739Y-68419496D01*
X131885635Y-68199692D01*
X131898493Y-68052727D01*
X131905468Y-67973005D01*
X131905468Y-67972994D01*
X132694532Y-67972994D01*
X132694532Y-67973005D01*
X132714363Y-68199679D01*
X132714365Y-68199694D01*
X132773261Y-68419496D01*
X132773265Y-68419507D01*
X132775957Y-68425281D01*
X132799045Y-68519653D01*
X132784260Y-68615676D01*
X132775957Y-68635719D01*
X132773265Y-68641492D01*
X132773261Y-68641503D01*
X132714365Y-68861305D01*
X132714363Y-68861320D01*
X132694532Y-69087994D01*
X132694532Y-69088005D01*
X132714363Y-69314679D01*
X132714365Y-69314694D01*
X132773261Y-69534496D01*
X132773262Y-69534499D01*
X132869428Y-69740727D01*
X132869436Y-69740741D01*
X132999949Y-69927134D01*
X132999953Y-69927139D01*
X133160861Y-70088047D01*
X133160864Y-70088049D01*
X133160865Y-70088050D01*
X133347258Y-70218563D01*
X133347262Y-70218565D01*
X133347266Y-70218568D01*
X133347270Y-70218569D01*
X133347272Y-70218571D01*
X133396047Y-70241315D01*
X133553504Y-70314739D01*
X133773308Y-70373635D01*
X133792984Y-70375356D01*
X133999994Y-70393468D01*
X134000000Y-70393468D01*
X134000006Y-70393468D01*
X134191853Y-70376683D01*
X134226692Y-70373635D01*
X134446496Y-70314739D01*
X134652734Y-70218568D01*
X134839139Y-70088047D01*
X135000047Y-69927139D01*
X135130568Y-69740734D01*
X135226739Y-69534496D01*
X135285635Y-69314692D01*
X135304106Y-69103568D01*
X135305468Y-69088005D01*
X135305468Y-69087994D01*
X135285636Y-68861320D01*
X135285635Y-68861308D01*
X135226739Y-68641504D01*
X135224050Y-68635737D01*
X135200955Y-68541367D01*
X135215733Y-68445342D01*
X135224050Y-68425263D01*
X135224901Y-68423436D01*
X135226739Y-68419496D01*
X135285635Y-68199692D01*
X135298493Y-68052727D01*
X135305468Y-67973005D01*
X135305468Y-67972994D01*
X135290332Y-67799994D01*
X148694532Y-67799994D01*
X148694532Y-67800005D01*
X148714363Y-68026679D01*
X148714365Y-68026694D01*
X148771288Y-68239134D01*
X148773261Y-68246496D01*
X148842402Y-68394768D01*
X148865494Y-68489139D01*
X148850715Y-68585163D01*
X148842403Y-68605228D01*
X148825489Y-68641502D01*
X148773260Y-68753506D01*
X148714365Y-68973305D01*
X148714363Y-68973320D01*
X148694532Y-69199994D01*
X148694532Y-69200005D01*
X148714363Y-69426679D01*
X148714365Y-69426694D01*
X148773261Y-69646496D01*
X148773262Y-69646499D01*
X148869428Y-69852727D01*
X148869436Y-69852741D01*
X148978045Y-70007851D01*
X148999953Y-70039139D01*
X149160861Y-70200047D01*
X149160864Y-70200049D01*
X149160865Y-70200050D01*
X149347258Y-70330563D01*
X149347262Y-70330565D01*
X149347266Y-70330568D01*
X149347270Y-70330569D01*
X149347272Y-70330571D01*
X149396576Y-70353562D01*
X149553504Y-70426739D01*
X149773308Y-70485635D01*
X149792984Y-70487356D01*
X149999994Y-70505468D01*
X150000000Y-70505468D01*
X150000006Y-70505468D01*
X150197248Y-70488211D01*
X150226692Y-70485635D01*
X150446496Y-70426739D01*
X150652734Y-70330568D01*
X150839139Y-70200047D01*
X151000047Y-70039139D01*
X151130568Y-69852734D01*
X151226739Y-69646496D01*
X151285635Y-69426692D01*
X151300338Y-69258635D01*
X151305468Y-69200005D01*
X151305468Y-69199994D01*
X151285636Y-68973320D01*
X151285635Y-68973308D01*
X151226739Y-68753504D01*
X151157597Y-68605230D01*
X151134505Y-68510863D01*
X151149284Y-68414838D01*
X151157598Y-68394768D01*
X151226739Y-68246496D01*
X151285635Y-68026692D01*
X151305468Y-67800000D01*
X151305468Y-67799994D01*
X162694532Y-67799994D01*
X162694532Y-67800005D01*
X162714363Y-68026679D01*
X162714365Y-68026694D01*
X162773261Y-68246496D01*
X162773262Y-68246499D01*
X162869428Y-68452727D01*
X162869436Y-68452741D01*
X162999949Y-68639134D01*
X162999953Y-68639139D01*
X163160861Y-68800047D01*
X163160864Y-68800049D01*
X163160865Y-68800050D01*
X163347258Y-68930563D01*
X163347262Y-68930565D01*
X163347266Y-68930568D01*
X163347270Y-68930569D01*
X163347272Y-68930571D01*
X163554436Y-69027174D01*
X163632786Y-69084622D01*
X163683188Y-69167681D01*
X163697256Y-69231142D01*
X163714363Y-69426679D01*
X163714365Y-69426693D01*
X163764016Y-69611992D01*
X163772500Y-69676437D01*
X163772500Y-70123516D01*
X163753546Y-70218804D01*
X163699570Y-70299586D01*
X163618788Y-70353562D01*
X163587949Y-70364031D01*
X163553504Y-70373260D01*
X163553500Y-70373262D01*
X163347272Y-70469428D01*
X163347258Y-70469436D01*
X163160865Y-70599949D01*
X162999949Y-70760865D01*
X162869436Y-70947258D01*
X162869428Y-70947272D01*
X162773262Y-71153500D01*
X162773261Y-71153503D01*
X162714365Y-71373305D01*
X162714363Y-71373320D01*
X162694532Y-71599994D01*
X162694532Y-71600005D01*
X162714363Y-71826679D01*
X162714365Y-71826694D01*
X162773261Y-72046496D01*
X162773262Y-72046499D01*
X162869428Y-72252727D01*
X162869436Y-72252741D01*
X162978925Y-72409108D01*
X162999953Y-72439139D01*
X163160861Y-72600047D01*
X163160864Y-72600049D01*
X163160865Y-72600050D01*
X163347258Y-72730563D01*
X163347262Y-72730565D01*
X163347266Y-72730568D01*
X163553504Y-72826739D01*
X163773308Y-72885635D01*
X163792984Y-72887356D01*
X163999994Y-72905468D01*
X164000000Y-72905468D01*
X164000006Y-72905468D01*
X164179668Y-72889749D01*
X164226692Y-72885635D01*
X164446496Y-72826739D01*
X164652734Y-72730568D01*
X164839139Y-72600047D01*
X165000047Y-72439139D01*
X165130568Y-72252734D01*
X165226739Y-72046496D01*
X165285635Y-71826692D01*
X165290375Y-71772512D01*
X165305468Y-71600005D01*
X165305468Y-71599994D01*
X165285636Y-71373320D01*
X165285635Y-71373308D01*
X165226739Y-71153504D01*
X165130568Y-70947266D01*
X165130565Y-70947262D01*
X165130563Y-70947258D01*
X165077550Y-70871547D01*
X165038421Y-70782620D01*
X165036302Y-70685488D01*
X165071515Y-70594939D01*
X165138699Y-70524758D01*
X165217074Y-70488211D01*
X165226685Y-70485635D01*
X165226692Y-70485635D01*
X165446496Y-70426739D01*
X165652734Y-70330568D01*
X165839139Y-70200047D01*
X166000047Y-70039139D01*
X166130568Y-69852734D01*
X166226739Y-69646496D01*
X166285635Y-69426692D01*
X166300338Y-69258635D01*
X166305468Y-69200005D01*
X166305468Y-69199994D01*
X166285636Y-68973320D01*
X166285635Y-68973308D01*
X166226739Y-68753504D01*
X166157597Y-68605230D01*
X166134505Y-68510863D01*
X166149284Y-68414838D01*
X166157598Y-68394768D01*
X166226739Y-68246496D01*
X166285635Y-68026692D01*
X166305468Y-67800000D01*
X166305468Y-67799994D01*
X166285636Y-67573320D01*
X166285635Y-67573308D01*
X166226739Y-67353504D01*
X166130568Y-67147266D01*
X166130565Y-67147262D01*
X166130563Y-67147258D01*
X166000050Y-66960865D01*
X166000049Y-66960864D01*
X166000047Y-66960861D01*
X165839139Y-66799953D01*
X165839135Y-66799950D01*
X165839134Y-66799949D01*
X165652741Y-66669436D01*
X165652727Y-66669428D01*
X165446499Y-66573262D01*
X165446496Y-66573261D01*
X165226694Y-66514365D01*
X165226679Y-66514363D01*
X165000006Y-66494532D01*
X164999994Y-66494532D01*
X164773320Y-66514363D01*
X164773311Y-66514364D01*
X164773308Y-66514365D01*
X164702569Y-66533319D01*
X164564445Y-66570329D01*
X164467498Y-66576683D01*
X164435555Y-66570329D01*
X164341118Y-66545025D01*
X164226692Y-66514365D01*
X164226686Y-66514364D01*
X164226679Y-66514363D01*
X164000006Y-66494532D01*
X163999994Y-66494532D01*
X163773320Y-66514363D01*
X163773305Y-66514365D01*
X163553503Y-66573261D01*
X163553500Y-66573262D01*
X163347272Y-66669428D01*
X163347258Y-66669436D01*
X163160865Y-66799949D01*
X162999949Y-66960865D01*
X162869436Y-67147258D01*
X162869428Y-67147272D01*
X162773262Y-67353500D01*
X162773261Y-67353503D01*
X162714365Y-67573305D01*
X162714363Y-67573320D01*
X162694532Y-67799994D01*
X151305468Y-67799994D01*
X151285636Y-67573320D01*
X151285635Y-67573308D01*
X151226739Y-67353504D01*
X151130568Y-67147266D01*
X151130565Y-67147262D01*
X151130563Y-67147258D01*
X151000050Y-66960865D01*
X151000049Y-66960864D01*
X151000047Y-66960861D01*
X150839139Y-66799953D01*
X150839135Y-66799950D01*
X150839134Y-66799949D01*
X150652741Y-66669436D01*
X150652727Y-66669428D01*
X150446499Y-66573262D01*
X150446496Y-66573261D01*
X150226694Y-66514365D01*
X150226679Y-66514363D01*
X150000006Y-66494532D01*
X149999994Y-66494532D01*
X149773320Y-66514363D01*
X149773305Y-66514365D01*
X149553503Y-66573261D01*
X149553500Y-66573262D01*
X149347272Y-66669428D01*
X149347258Y-66669436D01*
X149160865Y-66799949D01*
X148999949Y-66960865D01*
X148869436Y-67147258D01*
X148869428Y-67147272D01*
X148773262Y-67353500D01*
X148773261Y-67353503D01*
X148714365Y-67573305D01*
X148714363Y-67573320D01*
X148694532Y-67799994D01*
X135290332Y-67799994D01*
X135285636Y-67746320D01*
X135285635Y-67746308D01*
X135226739Y-67526504D01*
X135146067Y-67353503D01*
X135130571Y-67320272D01*
X135130563Y-67320258D01*
X135000050Y-67133865D01*
X135000049Y-67133864D01*
X135000047Y-67133861D01*
X134839139Y-66972953D01*
X134839135Y-66972950D01*
X134839134Y-66972949D01*
X134652741Y-66842436D01*
X134652727Y-66842428D01*
X134446499Y-66746262D01*
X134446496Y-66746261D01*
X134226694Y-66687365D01*
X134226679Y-66687363D01*
X134000006Y-66667532D01*
X133999994Y-66667532D01*
X133773320Y-66687363D01*
X133773305Y-66687365D01*
X133553503Y-66746261D01*
X133553500Y-66746262D01*
X133347272Y-66842428D01*
X133347258Y-66842436D01*
X133160865Y-66972949D01*
X132999949Y-67133865D01*
X132869436Y-67320258D01*
X132869428Y-67320272D01*
X132773262Y-67526500D01*
X132773261Y-67526503D01*
X132714365Y-67746305D01*
X132714363Y-67746320D01*
X132694532Y-67972994D01*
X131905468Y-67972994D01*
X131885636Y-67746320D01*
X131885635Y-67746308D01*
X131826739Y-67526504D01*
X131746067Y-67353503D01*
X131730571Y-67320272D01*
X131730563Y-67320258D01*
X131600050Y-67133865D01*
X131600049Y-67133864D01*
X131600047Y-67133861D01*
X131439139Y-66972953D01*
X131439135Y-66972950D01*
X131439134Y-66972949D01*
X131252741Y-66842436D01*
X131252727Y-66842428D01*
X131046499Y-66746262D01*
X131046496Y-66746261D01*
X130826694Y-66687365D01*
X130826679Y-66687363D01*
X130600006Y-66667532D01*
X130599994Y-66667532D01*
X130373320Y-66687363D01*
X130373311Y-66687364D01*
X130373308Y-66687365D01*
X130302569Y-66706319D01*
X130164445Y-66743329D01*
X130067498Y-66749683D01*
X130035555Y-66743329D01*
X129941118Y-66718025D01*
X129826692Y-66687365D01*
X129826686Y-66687364D01*
X129826679Y-66687363D01*
X129600006Y-66667532D01*
X129599994Y-66667532D01*
X129373320Y-66687363D01*
X129373305Y-66687365D01*
X129153503Y-66746261D01*
X129153500Y-66746262D01*
X128947272Y-66842428D01*
X128947258Y-66842436D01*
X128760865Y-66972949D01*
X128599949Y-67133865D01*
X128469436Y-67320258D01*
X128469428Y-67320272D01*
X128373262Y-67526500D01*
X128373261Y-67526503D01*
X128314365Y-67746305D01*
X128314363Y-67746320D01*
X128294532Y-67972994D01*
X94500500Y-67972994D01*
X94500500Y-46101640D01*
X94519454Y-46006352D01*
X94573430Y-45925570D01*
X94654212Y-45871594D01*
X94749500Y-45852640D01*
X94844788Y-45871594D01*
X94925570Y-45925570D01*
X96753381Y-47753381D01*
X96807357Y-47834163D01*
X96826311Y-47929451D01*
X96807357Y-48024739D01*
X96753381Y-48105521D01*
X96672599Y-48159497D01*
X96609819Y-48176320D01*
X96592544Y-48178594D01*
X96592542Y-48178595D01*
X96592539Y-48178595D01*
X96592537Y-48178596D01*
X96466005Y-48212500D01*
X96377215Y-48236291D01*
X96377211Y-48236292D01*
X96171279Y-48321592D01*
X96171275Y-48321594D01*
X95978230Y-48433049D01*
X95801373Y-48568755D01*
X95643755Y-48726373D01*
X95508049Y-48903230D01*
X95396594Y-49096275D01*
X95396592Y-49096279D01*
X95311292Y-49302211D01*
X95311291Y-49302215D01*
X95253595Y-49517541D01*
X95232043Y-49681247D01*
X95224500Y-49738543D01*
X95224500Y-49961457D01*
X95253596Y-50182463D01*
X95311290Y-50397781D01*
X95311291Y-50397784D01*
X95311292Y-50397788D01*
X95396592Y-50603720D01*
X95396594Y-50603724D01*
X95396595Y-50603726D01*
X95508052Y-50796774D01*
X95586706Y-50899278D01*
X95643755Y-50973626D01*
X95665415Y-50995286D01*
X95719391Y-51076068D01*
X95738345Y-51171356D01*
X95721133Y-51262326D01*
X95636079Y-51479039D01*
X95636077Y-51479044D01*
X95577300Y-51736571D01*
X95577299Y-51736576D01*
X95557558Y-52000000D01*
X95577299Y-52263424D01*
X95577300Y-52263428D01*
X95636077Y-52520955D01*
X95636081Y-52520966D01*
X95656706Y-52573517D01*
X95730478Y-52761484D01*
X95732589Y-52766861D01*
X95732593Y-52766870D01*
X95795311Y-52875501D01*
X95826540Y-52967500D01*
X95820185Y-53064447D01*
X95795311Y-53124499D01*
X95732593Y-53233129D01*
X95732589Y-53233138D01*
X95636081Y-53479033D01*
X95636077Y-53479044D01*
X95591861Y-53672774D01*
X95577299Y-53736576D01*
X95557558Y-54000000D01*
X95577299Y-54263424D01*
X95577300Y-54263428D01*
X95636077Y-54520955D01*
X95636081Y-54520966D01*
X95677594Y-54626737D01*
X95700624Y-54685418D01*
X95732589Y-54766861D01*
X95732595Y-54766874D01*
X95864668Y-54995631D01*
X95864675Y-54995641D01*
X96029372Y-55202165D01*
X96029376Y-55202169D01*
X96088498Y-55257026D01*
X96145457Y-55335732D01*
X96167961Y-55430245D01*
X96152583Y-55526175D01*
X96144807Y-55544785D01*
X96134578Y-55566720D01*
X96085469Y-55749999D01*
X96085469Y-55750000D01*
X96941351Y-55750000D01*
X96898910Y-55823508D01*
X96867750Y-55939802D01*
X96867750Y-56060198D01*
X96898910Y-56176492D01*
X96941351Y-56250000D01*
X96085469Y-56250000D01*
X96133742Y-56430160D01*
X96140096Y-56527107D01*
X96108866Y-56619105D01*
X96044807Y-56692150D01*
X96017731Y-56710242D01*
X95978234Y-56733046D01*
X95801373Y-56868755D01*
X95643755Y-57026373D01*
X95508049Y-57203230D01*
X95396594Y-57396275D01*
X95396592Y-57396279D01*
X95311292Y-57602211D01*
X95311291Y-57602215D01*
X95253595Y-57817541D01*
X95224500Y-58038543D01*
X95224500Y-58261456D01*
X95253595Y-58482458D01*
X95311291Y-58697784D01*
X95311292Y-58697788D01*
X95396592Y-58903720D01*
X95396594Y-58903724D01*
X95396595Y-58903726D01*
X95508052Y-59096774D01*
X95643753Y-59273624D01*
X95801376Y-59431247D01*
X95978226Y-59566948D01*
X96171274Y-59678405D01*
X96171279Y-59678407D01*
X96377211Y-59763707D01*
X96377212Y-59763707D01*
X96377219Y-59763710D01*
X96592537Y-59821404D01*
X96813543Y-59850500D01*
X97836457Y-59850500D01*
X98057463Y-59821404D01*
X98272781Y-59763710D01*
X98478726Y-59678405D01*
X98671774Y-59566948D01*
X98848624Y-59431247D01*
X99006247Y-59273624D01*
X99141948Y-59096774D01*
X99253405Y-58903726D01*
X99338710Y-58697781D01*
X99396404Y-58482463D01*
X99425500Y-58261457D01*
X99425500Y-58038543D01*
X99396404Y-57817537D01*
X99338710Y-57602219D01*
X99253405Y-57396274D01*
X99141948Y-57203226D01*
X99006247Y-57026376D01*
X98848624Y-56868753D01*
X98671774Y-56733052D01*
X98671764Y-56733046D01*
X98632270Y-56710243D01*
X98559226Y-56646183D01*
X98516256Y-56559047D01*
X98509904Y-56462100D01*
X98516258Y-56430159D01*
X98564531Y-56250001D01*
X98564531Y-56250000D01*
X97708649Y-56250000D01*
X97751090Y-56176492D01*
X97782250Y-56060198D01*
X97782250Y-55939802D01*
X97751090Y-55823508D01*
X97708649Y-55750000D01*
X98564531Y-55750000D01*
X98564530Y-55749999D01*
X98515422Y-55566723D01*
X98505193Y-55544787D01*
X98482101Y-55450416D01*
X98496881Y-55354392D01*
X98547282Y-55271333D01*
X98561477Y-55257048D01*
X98620627Y-55202166D01*
X98785329Y-54995636D01*
X98844965Y-54892342D01*
X98909021Y-54819299D01*
X98996156Y-54776328D01*
X99093103Y-54769973D01*
X99185102Y-54801202D01*
X99258148Y-54865260D01*
X99301119Y-54952395D01*
X99308657Y-55038543D01*
X99294532Y-55200003D01*
X99294532Y-55200005D01*
X99314363Y-55426679D01*
X99314365Y-55426694D01*
X99373261Y-55646496D01*
X99373262Y-55646499D01*
X99469428Y-55852727D01*
X99469436Y-55852741D01*
X99599949Y-56039134D01*
X99599953Y-56039139D01*
X99760861Y-56200047D01*
X99760864Y-56200049D01*
X99760865Y-56200050D01*
X99947258Y-56330563D01*
X99947262Y-56330565D01*
X99947266Y-56330568D01*
X99947270Y-56330569D01*
X99947272Y-56330571D01*
X99996345Y-56353454D01*
X100153504Y-56426739D01*
X100373308Y-56485635D01*
X100392984Y-56487356D01*
X100599994Y-56505468D01*
X100600000Y-56505468D01*
X100600006Y-56505468D01*
X100779668Y-56489749D01*
X100826692Y-56485635D01*
X101046496Y-56426739D01*
X101252734Y-56330568D01*
X101439139Y-56200047D01*
X101600047Y-56039139D01*
X101730568Y-55852734D01*
X101826739Y-55646496D01*
X101885635Y-55426692D01*
X101900479Y-55257023D01*
X101905468Y-55200005D01*
X101905468Y-55199994D01*
X101885636Y-54973320D01*
X101885635Y-54973308D01*
X101826739Y-54753504D01*
X101730568Y-54547266D01*
X101730565Y-54547262D01*
X101730563Y-54547258D01*
X101600050Y-54360865D01*
X101600049Y-54360864D01*
X101600047Y-54360861D01*
X101439139Y-54199953D01*
X101439135Y-54199950D01*
X101439134Y-54199949D01*
X101252741Y-54069436D01*
X101252727Y-54069428D01*
X101046499Y-53973262D01*
X101046496Y-53973261D01*
X100826694Y-53914365D01*
X100826679Y-53914363D01*
X100600006Y-53894532D01*
X100599994Y-53894532D01*
X100373320Y-53914363D01*
X100373305Y-53914365D01*
X100153506Y-53973260D01*
X99947675Y-54069241D01*
X99853304Y-54092333D01*
X99757280Y-54077553D01*
X99674221Y-54027152D01*
X99666373Y-54019640D01*
X98978398Y-53331665D01*
X98924422Y-53250883D01*
X98922679Y-53246561D01*
X98917413Y-53233144D01*
X98917410Y-53233136D01*
X98854688Y-53124498D01*
X98823459Y-53032502D01*
X98829813Y-52935555D01*
X98854689Y-52875500D01*
X98917404Y-52766874D01*
X98917410Y-52766864D01*
X99013920Y-52520963D01*
X99072701Y-52263424D01*
X99092442Y-52000000D01*
X99072701Y-51736576D01*
X99013920Y-51479037D01*
X98928865Y-51262323D01*
X98911697Y-51166702D01*
X98932428Y-51071784D01*
X98984585Y-50995285D01*
X99006247Y-50973624D01*
X99141948Y-50796774D01*
X99219383Y-50662652D01*
X99283437Y-50589614D01*
X99370573Y-50546644D01*
X99467519Y-50540289D01*
X99559519Y-50571518D01*
X99611089Y-50611089D01*
X99899278Y-50899278D01*
X99953254Y-50980060D01*
X99963724Y-51010903D01*
X99973261Y-51046496D01*
X99973262Y-51046499D01*
X100069428Y-51252727D01*
X100069436Y-51252741D01*
X100199949Y-51439134D01*
X100199953Y-51439139D01*
X100360861Y-51600047D01*
X100360864Y-51600049D01*
X100360865Y-51600050D01*
X100547258Y-51730563D01*
X100547262Y-51730565D01*
X100547266Y-51730568D01*
X100753504Y-51826739D01*
X100789095Y-51836275D01*
X100876230Y-51879244D01*
X100900720Y-51900721D01*
X100999999Y-51999999D01*
X101000000Y-52000000D01*
X104772934Y-52000000D01*
X104868222Y-52018954D01*
X104949004Y-52072930D01*
X104954913Y-52079045D01*
X104987899Y-52114365D01*
X105072155Y-52204581D01*
X105289754Y-52381611D01*
X105529432Y-52527362D01*
X105786725Y-52639120D01*
X106056839Y-52714803D01*
X106334742Y-52753000D01*
X106334750Y-52753000D01*
X106615250Y-52753000D01*
X106615258Y-52753000D01*
X106893161Y-52714803D01*
X107163275Y-52639120D01*
X107420568Y-52527362D01*
X107660246Y-52381611D01*
X107877845Y-52204581D01*
X108069312Y-51999569D01*
X108231081Y-51770396D01*
X108360136Y-51521330D01*
X108454075Y-51257011D01*
X108505217Y-51010903D01*
X108511147Y-50982368D01*
X108511147Y-50982366D01*
X108511148Y-50982362D01*
X108530291Y-50702500D01*
X108523115Y-50597593D01*
X108535523Y-50501236D01*
X108583861Y-50416959D01*
X108595451Y-50404548D01*
X108927070Y-50072930D01*
X109007851Y-50018954D01*
X109103139Y-50000000D01*
X110896860Y-50000000D01*
X110992148Y-50018954D01*
X111072930Y-50072930D01*
X111367095Y-50367095D01*
X111421071Y-50447877D01*
X111440025Y-50543165D01*
X111439445Y-50560156D01*
X111429709Y-50702499D01*
X111448852Y-50982368D01*
X111497771Y-51217775D01*
X111505925Y-51257011D01*
X111599864Y-51521330D01*
X111711395Y-51736576D01*
X111728924Y-51770405D01*
X111867074Y-51966116D01*
X111890688Y-51999569D01*
X112082155Y-52204581D01*
X112299754Y-52381611D01*
X112539432Y-52527362D01*
X112796725Y-52639120D01*
X113066839Y-52714803D01*
X113344742Y-52753000D01*
X113344750Y-52753000D01*
X113625250Y-52753000D01*
X113625258Y-52753000D01*
X113903161Y-52714803D01*
X114173275Y-52639120D01*
X114430568Y-52527362D01*
X114670246Y-52381611D01*
X114887845Y-52204581D01*
X115079312Y-51999569D01*
X115241081Y-51770396D01*
X115370136Y-51521330D01*
X115464075Y-51257011D01*
X115515217Y-51010903D01*
X115521147Y-50982368D01*
X115521147Y-50982366D01*
X115521148Y-50982362D01*
X115540291Y-50702500D01*
X115532475Y-50588236D01*
X115544881Y-50491878D01*
X115593218Y-50407601D01*
X115604810Y-50395189D01*
X115927070Y-50072930D01*
X116007851Y-50018954D01*
X116103139Y-50000000D01*
X118896860Y-50000000D01*
X118992148Y-50018954D01*
X119072930Y-50072930D01*
X119357735Y-50357735D01*
X119411711Y-50438517D01*
X119430665Y-50533805D01*
X119430085Y-50550795D01*
X119419709Y-50702499D01*
X119438852Y-50982368D01*
X119487771Y-51217775D01*
X119495925Y-51257011D01*
X119589864Y-51521330D01*
X119701395Y-51736576D01*
X119718924Y-51770405D01*
X119857074Y-51966116D01*
X119880688Y-51999569D01*
X120072155Y-52204581D01*
X120289754Y-52381611D01*
X120529432Y-52527362D01*
X120786725Y-52639120D01*
X121056839Y-52714803D01*
X121334742Y-52753000D01*
X121334750Y-52753000D01*
X121615250Y-52753000D01*
X121615258Y-52753000D01*
X121893161Y-52714803D01*
X122163275Y-52639120D01*
X122420568Y-52527362D01*
X122660246Y-52381611D01*
X122877845Y-52204581D01*
X123069312Y-51999569D01*
X123231081Y-51770396D01*
X123360136Y-51521330D01*
X123454075Y-51257011D01*
X123505217Y-51010903D01*
X123511147Y-50982368D01*
X123511147Y-50982366D01*
X123511148Y-50982362D01*
X123530291Y-50702500D01*
X123523115Y-50597593D01*
X123535523Y-50501236D01*
X123583861Y-50416959D01*
X123595451Y-50404548D01*
X123927070Y-50072930D01*
X124007851Y-50018954D01*
X124103139Y-50000000D01*
X125896860Y-50000000D01*
X125992148Y-50018954D01*
X126072930Y-50072930D01*
X126367095Y-50367095D01*
X126421071Y-50447877D01*
X126440025Y-50543165D01*
X126439445Y-50560156D01*
X126429709Y-50702499D01*
X126448852Y-50982368D01*
X126497771Y-51217775D01*
X126505925Y-51257011D01*
X126599864Y-51521330D01*
X126711395Y-51736576D01*
X126728924Y-51770405D01*
X126867074Y-51966116D01*
X126890688Y-51999569D01*
X127082155Y-52204581D01*
X127299754Y-52381611D01*
X127539432Y-52527362D01*
X127796725Y-52639120D01*
X128066839Y-52714803D01*
X128344742Y-52753000D01*
X128344750Y-52753000D01*
X128625250Y-52753000D01*
X128625258Y-52753000D01*
X128903161Y-52714803D01*
X129173275Y-52639120D01*
X129430568Y-52527362D01*
X129670246Y-52381611D01*
X129887845Y-52204581D01*
X130079312Y-51999569D01*
X130241081Y-51770396D01*
X130370136Y-51521330D01*
X130464075Y-51257011D01*
X130515217Y-51010903D01*
X130521147Y-50982368D01*
X130521147Y-50982366D01*
X130521148Y-50982362D01*
X130540291Y-50702500D01*
X130539137Y-50685636D01*
X130533535Y-50603726D01*
X130532475Y-50588236D01*
X130544881Y-50491878D01*
X130593218Y-50407601D01*
X130604810Y-50395189D01*
X130927070Y-50072930D01*
X131007851Y-50018954D01*
X131103139Y-50000000D01*
X133896860Y-50000000D01*
X133992148Y-50018954D01*
X134072930Y-50072930D01*
X134357735Y-50357735D01*
X134411711Y-50438517D01*
X134430665Y-50533805D01*
X134430085Y-50550795D01*
X134419709Y-50702499D01*
X134438852Y-50982368D01*
X134487771Y-51217775D01*
X134495925Y-51257011D01*
X134589864Y-51521330D01*
X134701395Y-51736576D01*
X134718923Y-51770403D01*
X134737351Y-51796509D01*
X134776816Y-51885287D01*
X134779304Y-51982410D01*
X134744436Y-52073092D01*
X134677518Y-52143528D01*
X134588740Y-52182993D01*
X134491617Y-52185481D01*
X134448763Y-52174086D01*
X134446497Y-52173261D01*
X134226694Y-52114365D01*
X134226679Y-52114363D01*
X134000006Y-52094532D01*
X133999994Y-52094532D01*
X133773320Y-52114363D01*
X133773305Y-52114365D01*
X133553503Y-52173261D01*
X133553500Y-52173262D01*
X133347272Y-52269428D01*
X133347258Y-52269436D01*
X133160862Y-52399951D01*
X133160054Y-52400630D01*
X133159313Y-52401036D01*
X133151956Y-52406188D01*
X133151391Y-52405382D01*
X133074876Y-52447361D01*
X132978298Y-52457937D01*
X132885024Y-52430751D01*
X132848114Y-52406087D01*
X132848044Y-52406188D01*
X132843453Y-52402973D01*
X132839946Y-52400630D01*
X132839137Y-52399951D01*
X132652741Y-52269436D01*
X132652727Y-52269428D01*
X132446499Y-52173262D01*
X132446496Y-52173261D01*
X132226694Y-52114365D01*
X132226679Y-52114363D01*
X132000006Y-52094532D01*
X131999994Y-52094532D01*
X131773320Y-52114363D01*
X131773305Y-52114365D01*
X131553503Y-52173261D01*
X131553500Y-52173262D01*
X131347272Y-52269428D01*
X131347258Y-52269436D01*
X131160865Y-52399949D01*
X130999949Y-52560865D01*
X130869436Y-52747258D01*
X130869428Y-52747272D01*
X130773262Y-52953500D01*
X130773261Y-52953503D01*
X130714365Y-53173305D01*
X130714363Y-53173320D01*
X130694532Y-53399994D01*
X130694532Y-53400005D01*
X130714363Y-53626679D01*
X130714365Y-53626694D01*
X130773261Y-53846496D01*
X130773262Y-53846499D01*
X130869428Y-54052727D01*
X130869436Y-54052741D01*
X130999949Y-54239134D01*
X130999953Y-54239139D01*
X131160861Y-54400047D01*
X131160864Y-54400049D01*
X131160865Y-54400050D01*
X131347258Y-54530563D01*
X131347262Y-54530565D01*
X131347266Y-54530568D01*
X131347270Y-54530569D01*
X131347272Y-54530571D01*
X131471008Y-54588270D01*
X131553504Y-54626739D01*
X131587944Y-54635967D01*
X131675080Y-54678937D01*
X131739139Y-54751981D01*
X131770369Y-54843980D01*
X131772500Y-54876483D01*
X131772500Y-55523516D01*
X131753546Y-55618804D01*
X131699570Y-55699586D01*
X131618788Y-55753562D01*
X131587949Y-55764031D01*
X131553504Y-55773260D01*
X131553500Y-55773262D01*
X131347272Y-55869428D01*
X131347258Y-55869436D01*
X131160865Y-55999949D01*
X130999949Y-56160865D01*
X130869436Y-56347258D01*
X130869428Y-56347272D01*
X130773262Y-56553500D01*
X130773261Y-56553503D01*
X130714365Y-56773305D01*
X130714363Y-56773320D01*
X130694532Y-56999994D01*
X130694532Y-57000005D01*
X130714363Y-57226679D01*
X130714365Y-57226694D01*
X130773261Y-57446496D01*
X130773262Y-57446499D01*
X130869428Y-57652727D01*
X130869436Y-57652741D01*
X130984827Y-57817537D01*
X130999953Y-57839139D01*
X131160861Y-58000047D01*
X131160864Y-58000049D01*
X131160865Y-58000050D01*
X131347258Y-58130563D01*
X131347262Y-58130565D01*
X131347266Y-58130568D01*
X131553504Y-58226739D01*
X131773308Y-58285635D01*
X131792984Y-58287356D01*
X131999994Y-58305468D01*
X132000000Y-58305468D01*
X132000006Y-58305468D01*
X132179668Y-58289749D01*
X132226692Y-58285635D01*
X132446496Y-58226739D01*
X132652734Y-58130568D01*
X132839139Y-58000047D01*
X132839148Y-58000037D01*
X132839934Y-57999379D01*
X132840670Y-57998974D01*
X132848044Y-57993812D01*
X132848609Y-57994618D01*
X132925109Y-57952643D01*
X133021686Y-57942060D01*
X133114961Y-57969241D01*
X133151885Y-57993912D01*
X133151956Y-57993812D01*
X133156580Y-57997049D01*
X133160066Y-57999379D01*
X133160856Y-58000042D01*
X133160861Y-58000047D01*
X133160866Y-58000050D01*
X133160869Y-58000053D01*
X133347258Y-58130563D01*
X133347262Y-58130565D01*
X133347266Y-58130568D01*
X133553504Y-58226739D01*
X133773308Y-58285635D01*
X133792984Y-58287356D01*
X133999994Y-58305468D01*
X134000000Y-58305468D01*
X134000006Y-58305468D01*
X134179668Y-58289749D01*
X134226692Y-58285635D01*
X134446496Y-58226739D01*
X134652734Y-58130568D01*
X134839139Y-58000047D01*
X135000047Y-57839139D01*
X135130568Y-57652734D01*
X135226739Y-57446496D01*
X135285635Y-57226692D01*
X135290375Y-57172512D01*
X135305468Y-57000005D01*
X135305468Y-56999994D01*
X135285636Y-56773320D01*
X135285635Y-56773308D01*
X135226739Y-56553504D01*
X135167626Y-56426737D01*
X135130571Y-56347272D01*
X135130563Y-56347258D01*
X135000050Y-56160865D01*
X135000049Y-56160864D01*
X135000047Y-56160861D01*
X134839139Y-55999953D01*
X134839135Y-55999950D01*
X134839134Y-55999949D01*
X134652741Y-55869436D01*
X134652727Y-55869428D01*
X134446499Y-55773262D01*
X134446495Y-55773260D01*
X134412051Y-55764031D01*
X134324916Y-55721059D01*
X134260858Y-55648013D01*
X134229630Y-55556014D01*
X134227500Y-55523516D01*
X134227500Y-54876483D01*
X134246454Y-54781195D01*
X134300430Y-54700413D01*
X134381212Y-54646437D01*
X134412056Y-54635967D01*
X134446496Y-54626739D01*
X134652734Y-54530568D01*
X134839139Y-54400047D01*
X135000047Y-54239139D01*
X135130568Y-54052734D01*
X135226739Y-53846496D01*
X135285635Y-53626692D01*
X135305468Y-53400000D01*
X135305468Y-53399994D01*
X135285636Y-53173320D01*
X135285635Y-53173308D01*
X135226739Y-52953504D01*
X135191297Y-52877499D01*
X135177062Y-52846971D01*
X135153969Y-52752601D01*
X135168748Y-52656577D01*
X135219150Y-52573517D01*
X135297500Y-52516069D01*
X135391870Y-52492976D01*
X135487894Y-52507755D01*
X135521627Y-52523957D01*
X135521889Y-52523453D01*
X135529425Y-52527358D01*
X135529432Y-52527362D01*
X135786725Y-52639120D01*
X136056839Y-52714803D01*
X136334742Y-52753000D01*
X136334750Y-52753000D01*
X136615250Y-52753000D01*
X136615258Y-52753000D01*
X136893161Y-52714803D01*
X137163275Y-52639120D01*
X137420568Y-52527362D01*
X137660246Y-52381611D01*
X137877845Y-52204581D01*
X138069312Y-51999569D01*
X138231081Y-51770396D01*
X138360136Y-51521330D01*
X138454075Y-51257011D01*
X138505217Y-51010903D01*
X138511147Y-50982368D01*
X138511147Y-50982366D01*
X138511148Y-50982362D01*
X138530291Y-50702500D01*
X138523115Y-50597593D01*
X138535523Y-50501236D01*
X138583861Y-50416959D01*
X138595451Y-50404548D01*
X138927070Y-50072930D01*
X139007851Y-50018954D01*
X139103139Y-50000000D01*
X140896860Y-50000000D01*
X140992148Y-50018954D01*
X141072930Y-50072930D01*
X141367095Y-50367095D01*
X141421071Y-50447877D01*
X141440025Y-50543165D01*
X141439445Y-50560156D01*
X141429709Y-50702499D01*
X141448852Y-50982368D01*
X141497771Y-51217775D01*
X141505925Y-51257011D01*
X141599864Y-51521330D01*
X141711395Y-51736576D01*
X141728924Y-51770405D01*
X141867074Y-51966116D01*
X141890688Y-51999569D01*
X142082155Y-52204581D01*
X142299754Y-52381611D01*
X142539432Y-52527362D01*
X142796725Y-52639120D01*
X143066839Y-52714803D01*
X143344742Y-52753000D01*
X143344750Y-52753000D01*
X143625250Y-52753000D01*
X143625258Y-52753000D01*
X143903161Y-52714803D01*
X144173275Y-52639120D01*
X144430568Y-52527362D01*
X144670246Y-52381611D01*
X144887845Y-52204581D01*
X145079312Y-51999569D01*
X145241081Y-51770396D01*
X145370136Y-51521330D01*
X145464075Y-51257011D01*
X145515217Y-51010903D01*
X145521147Y-50982368D01*
X145521147Y-50982366D01*
X145521148Y-50982362D01*
X145540291Y-50702500D01*
X145539137Y-50685636D01*
X145533535Y-50603726D01*
X145532475Y-50588236D01*
X145544881Y-50491878D01*
X145593218Y-50407601D01*
X145604810Y-50395189D01*
X145927070Y-50072930D01*
X146007851Y-50018954D01*
X146103139Y-50000000D01*
X148896860Y-50000000D01*
X148992148Y-50018954D01*
X149072930Y-50072930D01*
X149357735Y-50357735D01*
X149411711Y-50438517D01*
X149430665Y-50533805D01*
X149430085Y-50550795D01*
X149419709Y-50702499D01*
X149438852Y-50982368D01*
X149487771Y-51217775D01*
X149495925Y-51257011D01*
X149589864Y-51521330D01*
X149718919Y-51770396D01*
X149718922Y-51770400D01*
X149718925Y-51770406D01*
X149725848Y-51780214D01*
X149765313Y-51868993D01*
X149767800Y-51966116D01*
X149732930Y-52056798D01*
X149666012Y-52127232D01*
X149586870Y-52164320D01*
X149553504Y-52173260D01*
X149553500Y-52173262D01*
X149347272Y-52269428D01*
X149347258Y-52269436D01*
X149160862Y-52399951D01*
X149160054Y-52400630D01*
X149159313Y-52401036D01*
X149151956Y-52406188D01*
X149151391Y-52405382D01*
X149074876Y-52447361D01*
X148978298Y-52457937D01*
X148885024Y-52430751D01*
X148848114Y-52406087D01*
X148848044Y-52406188D01*
X148843453Y-52402973D01*
X148839946Y-52400630D01*
X148839137Y-52399951D01*
X148652741Y-52269436D01*
X148652727Y-52269428D01*
X148446499Y-52173262D01*
X148446496Y-52173261D01*
X148226694Y-52114365D01*
X148226679Y-52114363D01*
X148000006Y-52094532D01*
X147999994Y-52094532D01*
X147773320Y-52114363D01*
X147773305Y-52114365D01*
X147553503Y-52173261D01*
X147553500Y-52173262D01*
X147347272Y-52269428D01*
X147347258Y-52269436D01*
X147160865Y-52399949D01*
X146999949Y-52560865D01*
X146869436Y-52747258D01*
X146869428Y-52747272D01*
X146773262Y-52953500D01*
X146773261Y-52953503D01*
X146714365Y-53173305D01*
X146714363Y-53173320D01*
X146694532Y-53399994D01*
X146694532Y-53400005D01*
X146714363Y-53626679D01*
X146714365Y-53626694D01*
X146773261Y-53846496D01*
X146773262Y-53846499D01*
X146869428Y-54052727D01*
X146869436Y-54052741D01*
X146999949Y-54239134D01*
X146999953Y-54239139D01*
X147160861Y-54400047D01*
X147160864Y-54400049D01*
X147160865Y-54400050D01*
X147347258Y-54530563D01*
X147347262Y-54530565D01*
X147347266Y-54530568D01*
X147347270Y-54530569D01*
X147347272Y-54530571D01*
X147471008Y-54588270D01*
X147553504Y-54626739D01*
X147587944Y-54635967D01*
X147675080Y-54678937D01*
X147739139Y-54751981D01*
X147770369Y-54843980D01*
X147772500Y-54876483D01*
X147772500Y-55523516D01*
X147753546Y-55618804D01*
X147699570Y-55699586D01*
X147618788Y-55753562D01*
X147587949Y-55764031D01*
X147553504Y-55773260D01*
X147553500Y-55773262D01*
X147347272Y-55869428D01*
X147347258Y-55869436D01*
X147160865Y-55999949D01*
X146999949Y-56160865D01*
X146869436Y-56347258D01*
X146869428Y-56347272D01*
X146773262Y-56553500D01*
X146773261Y-56553503D01*
X146714365Y-56773305D01*
X146714363Y-56773320D01*
X146694532Y-56999994D01*
X146694532Y-57000005D01*
X146714363Y-57226679D01*
X146714365Y-57226694D01*
X146773261Y-57446496D01*
X146773262Y-57446499D01*
X146869428Y-57652727D01*
X146869436Y-57652741D01*
X146984827Y-57817537D01*
X146999953Y-57839139D01*
X147160861Y-58000047D01*
X147160864Y-58000049D01*
X147160865Y-58000050D01*
X147347258Y-58130563D01*
X147347262Y-58130565D01*
X147347266Y-58130568D01*
X147553504Y-58226739D01*
X147773308Y-58285635D01*
X147792984Y-58287356D01*
X147999994Y-58305468D01*
X148000000Y-58305468D01*
X148000006Y-58305468D01*
X148179668Y-58289749D01*
X148226692Y-58285635D01*
X148446496Y-58226739D01*
X148652734Y-58130568D01*
X148839139Y-58000047D01*
X148839148Y-58000037D01*
X148839934Y-57999379D01*
X148840670Y-57998974D01*
X148848044Y-57993812D01*
X148848609Y-57994618D01*
X148925109Y-57952643D01*
X149021686Y-57942060D01*
X149114961Y-57969241D01*
X149151885Y-57993912D01*
X149151956Y-57993812D01*
X149156580Y-57997049D01*
X149160066Y-57999379D01*
X149160856Y-58000042D01*
X149160861Y-58000047D01*
X149160866Y-58000050D01*
X149160869Y-58000053D01*
X149347258Y-58130563D01*
X149347262Y-58130565D01*
X149347266Y-58130568D01*
X149553504Y-58226739D01*
X149773308Y-58285635D01*
X149792984Y-58287356D01*
X149999994Y-58305468D01*
X150000000Y-58305468D01*
X150000006Y-58305468D01*
X150179668Y-58289749D01*
X150226692Y-58285635D01*
X150446496Y-58226739D01*
X150652734Y-58130568D01*
X150839139Y-58000047D01*
X151000047Y-57839139D01*
X151130568Y-57652734D01*
X151226739Y-57446496D01*
X151285635Y-57226692D01*
X151290375Y-57172512D01*
X151305468Y-57000005D01*
X151305468Y-56999994D01*
X151285636Y-56773320D01*
X151285635Y-56773308D01*
X151226739Y-56553504D01*
X151167626Y-56426737D01*
X151130571Y-56347272D01*
X151130563Y-56347258D01*
X151000050Y-56160865D01*
X151000049Y-56160864D01*
X151000047Y-56160861D01*
X150839139Y-55999953D01*
X150839135Y-55999950D01*
X150839134Y-55999949D01*
X150652741Y-55869436D01*
X150652727Y-55869428D01*
X150446499Y-55773262D01*
X150446495Y-55773260D01*
X150412051Y-55764031D01*
X150324916Y-55721059D01*
X150260858Y-55648013D01*
X150229630Y-55556014D01*
X150227500Y-55523516D01*
X150227500Y-55373795D01*
X168174500Y-55373795D01*
X168174500Y-55626204D01*
X168206521Y-55869432D01*
X168207446Y-55876452D01*
X168224421Y-55939802D01*
X168272772Y-56120256D01*
X168272774Y-56120260D01*
X168369367Y-56353454D01*
X168445681Y-56485635D01*
X168495567Y-56572041D01*
X168495571Y-56572048D01*
X168552458Y-56646183D01*
X168649227Y-56772294D01*
X168827706Y-56950773D01*
X169027954Y-57104430D01*
X169246546Y-57230633D01*
X169479740Y-57327226D01*
X169479741Y-57327226D01*
X169479743Y-57327227D01*
X169510880Y-57335570D01*
X169723548Y-57392554D01*
X169911234Y-57417263D01*
X169973795Y-57425500D01*
X169973796Y-57425500D01*
X170226205Y-57425500D01*
X170267912Y-57420009D01*
X170476452Y-57392554D01*
X170720260Y-57327226D01*
X170953454Y-57230633D01*
X171172046Y-57104430D01*
X171372294Y-56950773D01*
X171550773Y-56772294D01*
X171704430Y-56572046D01*
X171830633Y-56353454D01*
X171927226Y-56120260D01*
X171992554Y-55876452D01*
X172025500Y-55626204D01*
X172025500Y-55373796D01*
X171992554Y-55123548D01*
X171937333Y-54917460D01*
X171927227Y-54879743D01*
X171921228Y-54865260D01*
X171830633Y-54646546D01*
X171704430Y-54427954D01*
X171683018Y-54400050D01*
X171638521Y-54342060D01*
X171550773Y-54227706D01*
X171372294Y-54049227D01*
X171196540Y-53914365D01*
X171172048Y-53895571D01*
X171172041Y-53895567D01*
X171146211Y-53880654D01*
X170953454Y-53769367D01*
X170773083Y-53694654D01*
X170720256Y-53672772D01*
X170572911Y-53633292D01*
X170476452Y-53607446D01*
X170476447Y-53607445D01*
X170476448Y-53607445D01*
X170226205Y-53574500D01*
X170226204Y-53574500D01*
X169973796Y-53574500D01*
X169973795Y-53574500D01*
X169723552Y-53607445D01*
X169479743Y-53672772D01*
X169363143Y-53721070D01*
X169246546Y-53769367D01*
X169246543Y-53769369D01*
X169027958Y-53895567D01*
X169027951Y-53895571D01*
X168827708Y-54049225D01*
X168649225Y-54227708D01*
X168495571Y-54427951D01*
X168495567Y-54427958D01*
X168426690Y-54547258D01*
X168369367Y-54646546D01*
X168325694Y-54751981D01*
X168272772Y-54879743D01*
X168207445Y-55123552D01*
X168174500Y-55373795D01*
X150227500Y-55373795D01*
X150227500Y-54876483D01*
X150246454Y-54781195D01*
X150300430Y-54700413D01*
X150381212Y-54646437D01*
X150412056Y-54635967D01*
X150446496Y-54626739D01*
X150652734Y-54530568D01*
X150839139Y-54400047D01*
X151000047Y-54239139D01*
X151130568Y-54052734D01*
X151226739Y-53846496D01*
X151285635Y-53626692D01*
X151305468Y-53400000D01*
X151305468Y-53399994D01*
X151285636Y-53173320D01*
X151285635Y-53173308D01*
X151257000Y-53066443D01*
X151250647Y-52969498D01*
X151281877Y-52877499D01*
X151345936Y-52804455D01*
X151433072Y-52761484D01*
X151497517Y-52753000D01*
X151615250Y-52753000D01*
X151615258Y-52753000D01*
X151893161Y-52714803D01*
X152163275Y-52639120D01*
X152420568Y-52527362D01*
X152660246Y-52381611D01*
X152877845Y-52204581D01*
X153069312Y-51999569D01*
X153231081Y-51770396D01*
X153360136Y-51521330D01*
X153454075Y-51257011D01*
X153505217Y-51010903D01*
X153511147Y-50982368D01*
X153511147Y-50982366D01*
X153511148Y-50982362D01*
X153530291Y-50702500D01*
X153523115Y-50597593D01*
X153535523Y-50501236D01*
X153583861Y-50416959D01*
X153595451Y-50404548D01*
X153927070Y-50072930D01*
X154007851Y-50018954D01*
X154103139Y-50000000D01*
X155896860Y-50000000D01*
X155992148Y-50018954D01*
X156072930Y-50072930D01*
X156367095Y-50367095D01*
X156421071Y-50447877D01*
X156440025Y-50543165D01*
X156439445Y-50560156D01*
X156429709Y-50702499D01*
X156448852Y-50982368D01*
X156497771Y-51217775D01*
X156505925Y-51257011D01*
X156599864Y-51521330D01*
X156711395Y-51736576D01*
X156728924Y-51770405D01*
X156867074Y-51966116D01*
X156890688Y-51999569D01*
X157082155Y-52204581D01*
X157299754Y-52381611D01*
X157539432Y-52527362D01*
X157796725Y-52639120D01*
X158066839Y-52714803D01*
X158344742Y-52753000D01*
X158344750Y-52753000D01*
X158625250Y-52753000D01*
X158625258Y-52753000D01*
X158903161Y-52714803D01*
X159173275Y-52639120D01*
X159430568Y-52527362D01*
X159670246Y-52381611D01*
X159887845Y-52204581D01*
X160079312Y-51999569D01*
X160241081Y-51770396D01*
X160370136Y-51521330D01*
X160464075Y-51257011D01*
X160515217Y-51010903D01*
X160521147Y-50982368D01*
X160521147Y-50982366D01*
X160521148Y-50982362D01*
X160540291Y-50702500D01*
X160539137Y-50685636D01*
X160533535Y-50603726D01*
X160532475Y-50588236D01*
X160544881Y-50491878D01*
X160593218Y-50407601D01*
X160604810Y-50395189D01*
X160927070Y-50072930D01*
X161007851Y-50018954D01*
X161103139Y-50000000D01*
X163229886Y-50000000D01*
X163325174Y-50018954D01*
X163405956Y-50072930D01*
X163433853Y-50106178D01*
X163526953Y-50239139D01*
X163687861Y-50400047D01*
X163687864Y-50400049D01*
X163687865Y-50400050D01*
X163874258Y-50530563D01*
X163874262Y-50530565D01*
X163874266Y-50530568D01*
X163874270Y-50530569D01*
X163874272Y-50530571D01*
X163937717Y-50560156D01*
X164080504Y-50626739D01*
X164300308Y-50685635D01*
X164319984Y-50687356D01*
X164526994Y-50705468D01*
X164527000Y-50705468D01*
X164527006Y-50705468D01*
X164706668Y-50689749D01*
X164753692Y-50685635D01*
X164973496Y-50626739D01*
X165179734Y-50530568D01*
X165366139Y-50400047D01*
X165527047Y-50239139D01*
X165657568Y-50052734D01*
X165753739Y-49846496D01*
X165812635Y-49626692D01*
X165821652Y-49523624D01*
X165832468Y-49400004D01*
X165832468Y-49399997D01*
X165827811Y-49346769D01*
X165823885Y-49301900D01*
X165834461Y-49205328D01*
X165881190Y-49120149D01*
X165895845Y-49104154D01*
X169426570Y-45573430D01*
X169507352Y-45519454D01*
X169602640Y-45500500D01*
X171725139Y-45500500D01*
X171820427Y-45519454D01*
G37*
%TD.AperFunction*%
%TD*%
M02*
