%TF.GenerationSoftware,KiCad,Pcbnew,8.0.3*%
%TF.CreationDate,2024-07-03T21:33:09+01:00*%
%TF.ProjectId,Peanut,5065616e-7574-42e6-9b69-6361645f7063,rev?*%
%TF.SameCoordinates,Original*%
%TF.FileFunction,Soldermask,Top*%
%TF.FilePolarity,Negative*%
%FSLAX46Y46*%
G04 Gerber Fmt 4.6, Leading zero omitted, Abs format (unit mm)*
G04 Created by KiCad (PCBNEW 8.0.3) date 2024-07-03 21:33:09*
%MOMM*%
%LPD*%
G01*
G04 APERTURE LIST*
G04 Aperture macros list*
%AMRoundRect*
0 Rectangle with rounded corners*
0 $1 Rounding radius*
0 $2 $3 $4 $5 $6 $7 $8 $9 X,Y pos of 4 corners*
0 Add a 4 corners polygon primitive as box body*
4,1,4,$2,$3,$4,$5,$6,$7,$8,$9,$2,$3,0*
0 Add four circle primitives for the rounded corners*
1,1,$1+$1,$2,$3*
1,1,$1+$1,$4,$5*
1,1,$1+$1,$6,$7*
1,1,$1+$1,$8,$9*
0 Add four rect primitives between the rounded corners*
20,1,$1+$1,$2,$3,$4,$5,0*
20,1,$1+$1,$4,$5,$6,$7,0*
20,1,$1+$1,$6,$7,$8,$9,0*
20,1,$1+$1,$8,$9,$2,$3,0*%
G04 Aperture macros list end*
%ADD10R,1.700000X1.700000*%
%ADD11O,1.700000X1.700000*%
%ADD12R,7.340000X6.350000*%
%ADD13C,3.450000*%
%ADD14C,2.390000*%
%ADD15RoundRect,0.140000X0.140000X0.170000X-0.140000X0.170000X-0.140000X-0.170000X0.140000X-0.170000X0*%
%ADD16R,1.800000X1.000000*%
%ADD17RoundRect,0.150000X-0.512500X-0.150000X0.512500X-0.150000X0.512500X0.150000X-0.512500X0.150000X0*%
%ADD18RoundRect,0.135000X-0.135000X-0.185000X0.135000X-0.185000X0.135000X0.185000X-0.135000X0.185000X0*%
%ADD19R,0.406400X0.304800*%
%ADD20RoundRect,0.140000X-0.140000X-0.170000X0.140000X-0.170000X0.140000X0.170000X-0.140000X0.170000X0*%
%ADD21O,1.400000X2.200000*%
%ADD22C,1.524000*%
%ADD23R,1.676400X0.355600*%
%ADD24R,0.431800X0.304800*%
%ADD25R,0.304800X0.431800*%
%ADD26C,0.464000*%
%ADD27C,1.750000*%
%ADD28C,2.100000*%
%ADD29RoundRect,0.125000X-0.537500X-0.125000X0.537500X-0.125000X0.537500X0.125000X-0.537500X0.125000X0*%
%ADD30R,2.800000X2.800000*%
%ADD31R,2.200000X2.800000*%
%ADD32C,1.700000*%
%ADD33O,2.200000X1.400000*%
%ADD34RoundRect,0.135000X0.185000X-0.135000X0.185000X0.135000X-0.185000X0.135000X-0.185000X-0.135000X0*%
%ADD35RoundRect,0.100000X0.130000X0.100000X-0.130000X0.100000X-0.130000X-0.100000X0.130000X-0.100000X0*%
%ADD36R,0.330200X1.524000*%
%ADD37RoundRect,0.135000X0.135000X0.185000X-0.135000X0.185000X-0.135000X-0.185000X0.135000X-0.185000X0*%
%ADD38RoundRect,0.140000X0.170000X-0.140000X0.170000X0.140000X-0.170000X0.140000X-0.170000X-0.140000X0*%
%ADD39RoundRect,0.135000X-0.185000X0.135000X-0.185000X-0.135000X0.185000X-0.135000X0.185000X0.135000X0*%
%ADD40RoundRect,0.075000X-0.650000X-0.075000X0.650000X-0.075000X0.650000X0.075000X-0.650000X0.075000X0*%
%ADD41C,2.000000*%
%ADD42R,2.000000X2.000000*%
%ADD43R,1.600000X2.700000*%
%ADD44O,1.600000X2.700000*%
%ADD45RoundRect,0.140000X-0.170000X0.140000X-0.170000X-0.140000X0.170000X-0.140000X0.170000X0.140000X0*%
G04 APERTURE END LIST*
D10*
%TO.C,J2*%
X178850000Y-85300000D03*
D11*
X181390000Y-85300000D03*
X178850000Y-82760000D03*
X181390000Y-82760000D03*
X178850000Y-80220000D03*
X181390000Y-80220000D03*
X178850000Y-77680000D03*
X181390000Y-77680000D03*
%TD*%
D12*
%TO.C,BT1*%
X103170000Y-63500000D03*
X181830000Y-63500000D03*
D13*
X114900000Y-71500000D03*
X170100000Y-55500000D03*
D14*
X178430000Y-71500000D03*
%TD*%
D15*
%TO.C,C5*%
X154120000Y-78700000D03*
X155080000Y-78700000D03*
%TD*%
D16*
%TO.C,Y1*%
X163000000Y-80000000D03*
X163000000Y-77500000D03*
%TD*%
D17*
%TO.C,Q1*%
X168637500Y-78000000D03*
X166362500Y-78950000D03*
X166362500Y-77050000D03*
%TD*%
D18*
%TO.C,R14*%
X166010000Y-80500000D03*
X164990000Y-80500000D03*
%TD*%
D19*
%TO.C,U4*%
X133049400Y-48350001D03*
X133049400Y-49000000D03*
X133049400Y-49649999D03*
X131500000Y-49649999D03*
X131500000Y-49000000D03*
X131500000Y-48350001D03*
%TD*%
D20*
%TO.C,C2*%
X156980000Y-75950000D03*
X156020000Y-75950000D03*
%TD*%
D18*
%TO.C,R1*%
X161510000Y-75000000D03*
X160490000Y-75000000D03*
%TD*%
D15*
%TO.C,C4*%
X154120000Y-77200000D03*
X155080000Y-77200000D03*
%TD*%
D20*
%TO.C,C10*%
X169520000Y-51950000D03*
X170480000Y-51950000D03*
%TD*%
D21*
%TO.C,SW6*%
X180650000Y-48000000D03*
X172350000Y-48000000D03*
D22*
X174500000Y-48000000D03*
X176500000Y-48000000D03*
X178500000Y-48000000D03*
%TD*%
D15*
%TO.C,C11*%
X145795000Y-46500000D03*
X146755000Y-46500000D03*
%TD*%
D23*
%TO.C,U2*%
X162180600Y-51924998D03*
X162180600Y-51274999D03*
X162180600Y-50624998D03*
X162180600Y-49974999D03*
X162180600Y-49324998D03*
X162180600Y-48674999D03*
X162180600Y-48024998D03*
X162180600Y-47374999D03*
X162180600Y-46724998D03*
X162180600Y-46075000D03*
X167819400Y-46075002D03*
X167819400Y-46725001D03*
X167819400Y-47375002D03*
X167819400Y-48025001D03*
X167819400Y-48675002D03*
X167819400Y-49325001D03*
X167819400Y-49974999D03*
X167819400Y-50625001D03*
X167819400Y-51274999D03*
X167819400Y-51925000D03*
%TD*%
D15*
%TO.C,C3*%
X154120000Y-75700000D03*
X155080000Y-75700000D03*
%TD*%
D24*
%TO.C,U1*%
X160786000Y-77999999D03*
X160786000Y-78500000D03*
X160786000Y-79000000D03*
X160786000Y-79500001D03*
D25*
X160750001Y-80337500D03*
X160249999Y-80337500D03*
X159750000Y-80337500D03*
X159250001Y-80337500D03*
X158750000Y-80337500D03*
X158250000Y-80337500D03*
X157749999Y-80337500D03*
X157250000Y-80337500D03*
X156750001Y-80337500D03*
X156249999Y-80337500D03*
D24*
X156214000Y-79500001D03*
X156214000Y-79000000D03*
X156214000Y-78500000D03*
X156214000Y-77999999D03*
D25*
X156249999Y-77162500D03*
X156750001Y-77162500D03*
X157250000Y-77162500D03*
X157749999Y-77162500D03*
X158250000Y-77162500D03*
X158750000Y-77162500D03*
X159250001Y-77162500D03*
X159750000Y-77162500D03*
X160249999Y-77162500D03*
X160750001Y-77162500D03*
%TD*%
D20*
%TO.C,C1*%
X160180000Y-76000000D03*
X159220000Y-76000000D03*
%TD*%
D26*
%TO.C,U3*%
X147500000Y-49500000D03*
X146500000Y-49500000D03*
X147500000Y-49000000D03*
X146500000Y-49000000D03*
X147500000Y-48500000D03*
X146500000Y-48500000D03*
%TD*%
D15*
%TO.C,C6*%
X162670000Y-76200000D03*
X163630000Y-76200000D03*
%TD*%
D27*
%TO.C,SW1*%
X112225000Y-48212500D03*
X107725000Y-48212500D03*
D28*
X113485000Y-50702500D03*
X106475000Y-50702500D03*
%TD*%
D18*
%TO.C,R11*%
X96510000Y-87000000D03*
X95490000Y-87000000D03*
%TD*%
D20*
%TO.C,C13*%
X150980000Y-75000000D03*
X150020000Y-75000000D03*
%TD*%
D15*
%TO.C,C14*%
X115040000Y-76300000D03*
X116000000Y-76300000D03*
%TD*%
D29*
%TO.C,U8*%
X152262500Y-85525000D03*
X152262500Y-86175000D03*
X152262500Y-86825000D03*
X152262500Y-87475000D03*
X154537500Y-87475000D03*
X154537500Y-86825000D03*
X154537500Y-86175000D03*
X154537500Y-85525000D03*
%TD*%
D30*
%TO.C,J3*%
X108800000Y-83700000D03*
D31*
X99400000Y-83700000D03*
X101400000Y-76300000D03*
D32*
X107500000Y-80000000D03*
X100500000Y-80000000D03*
%TD*%
D15*
%TO.C,C15*%
X115040000Y-75300000D03*
X116000000Y-75300000D03*
%TD*%
D11*
%TO.C,J1*%
X174750000Y-77680000D03*
X172210000Y-77680000D03*
X174750000Y-80220000D03*
X172210000Y-80220000D03*
X174750000Y-82760000D03*
X172210000Y-82760000D03*
X174750000Y-85300000D03*
D10*
X172210000Y-85300000D03*
%TD*%
D33*
%TO.C,SW5*%
X97325000Y-49850000D03*
X97325000Y-58150000D03*
D22*
X97325000Y-56000000D03*
X97325000Y-54000000D03*
X97325000Y-52000000D03*
%TD*%
D34*
%TO.C,R6*%
X149500000Y-46990000D03*
X149500000Y-48010000D03*
%TD*%
D28*
%TO.C,SW2*%
X121475000Y-50702500D03*
X128485000Y-50702500D03*
D27*
X122725000Y-48212500D03*
X127225000Y-48212500D03*
%TD*%
D35*
%TO.C,D1*%
X97680000Y-87000000D03*
X98320000Y-87000000D03*
%TD*%
D27*
%TO.C,SW4*%
X157225000Y-48212500D03*
X152725000Y-48212500D03*
D28*
X158485000Y-50702500D03*
X151475000Y-50702500D03*
%TD*%
D36*
%TO.C,U5*%
X115000001Y-82044700D03*
X114499999Y-82044700D03*
X114000000Y-82044700D03*
X113500001Y-82044700D03*
X112999999Y-82044700D03*
X112999999Y-77955300D03*
X113500001Y-77955300D03*
X114000000Y-77955300D03*
X114499999Y-77955300D03*
X115000001Y-77955300D03*
%TD*%
D37*
%TO.C,R7*%
X101110000Y-52000000D03*
X100090000Y-52000000D03*
%TD*%
D38*
%TO.C,C12*%
X131500000Y-46220000D03*
X131500000Y-47180000D03*
%TD*%
D39*
%TO.C,R5*%
X134500000Y-48010000D03*
X134500000Y-46990000D03*
%TD*%
D18*
%TO.C,R15*%
X168010000Y-80500000D03*
X166990000Y-80500000D03*
%TD*%
D37*
%TO.C,R10*%
X99490000Y-87000000D03*
X100510000Y-87000000D03*
%TD*%
D39*
%TO.C,R3*%
X115500000Y-47510000D03*
X115500000Y-46490000D03*
%TD*%
D20*
%TO.C,C8*%
X169520000Y-49450000D03*
X170480000Y-49450000D03*
%TD*%
D39*
%TO.C,R4*%
X119000000Y-47510000D03*
X119000000Y-46490000D03*
%TD*%
D20*
%TO.C,C9*%
X169520000Y-50450000D03*
X170480000Y-50450000D03*
%TD*%
D40*
%TO.C,U7*%
X162200000Y-84500000D03*
X162200000Y-85000000D03*
X162200000Y-85500000D03*
X162200000Y-86000000D03*
X162200000Y-86500000D03*
X157800000Y-86500000D03*
X157800000Y-86000000D03*
X157800000Y-85500000D03*
X157800000Y-85000000D03*
X157800000Y-84500000D03*
%TD*%
D41*
%TO.C,BZ1*%
X127300000Y-81000000D03*
D42*
X119700000Y-81000000D03*
%TD*%
D37*
%TO.C,R9*%
X105490000Y-87000000D03*
X106510000Y-87000000D03*
%TD*%
D15*
%TO.C,C7*%
X162570000Y-81300000D03*
X163530000Y-81300000D03*
%TD*%
D18*
%TO.C,R2*%
X156110000Y-81800000D03*
X155090000Y-81800000D03*
%TD*%
D35*
%TO.C,D2*%
X103680000Y-87000000D03*
X104320000Y-87000000D03*
%TD*%
D18*
%TO.C,R12*%
X102510000Y-87000000D03*
X101490000Y-87000000D03*
%TD*%
D27*
%TO.C,SW3*%
X142225000Y-48212500D03*
X137725000Y-48212500D03*
D28*
X143485000Y-50702500D03*
X136475000Y-50702500D03*
%TD*%
D43*
%TO.C,U6*%
X144460000Y-77600000D03*
D44*
X147000000Y-77600000D03*
X149540000Y-77600000D03*
X149540000Y-86800000D03*
X147000000Y-86800000D03*
X144460000Y-86800000D03*
%TD*%
D45*
%TO.C,C17*%
X164000000Y-85520000D03*
X164000000Y-86480000D03*
%TD*%
D41*
%TO.C,BZ2*%
X140300000Y-81000000D03*
D42*
X132700000Y-81000000D03*
%TD*%
D38*
%TO.C,C16*%
X156000000Y-86480000D03*
X156000000Y-85520000D03*
%TD*%
M02*
