%TF.GenerationSoftware,KiCad,Pcbnew,8.0.3*%
%TF.CreationDate,2024-07-03T21:33:09+01:00*%
%TF.ProjectId,Peanut,5065616e-7574-42e6-9b69-6361645f7063,rev?*%
%TF.SameCoordinates,Original*%
%TF.FileFunction,Profile,NP*%
%FSLAX46Y46*%
G04 Gerber Fmt 4.6, Leading zero omitted, Abs format (unit mm)*
G04 Created by KiCad (PCBNEW 8.0.3) date 2024-07-03 21:33:09*
%MOMM*%
%LPD*%
G01*
G04 APERTURE LIST*
%TA.AperFunction,Profile*%
%ADD10C,0.050000*%
%TD*%
%TA.AperFunction,Profile*%
%ADD11C,0.000000*%
%TD*%
G04 APERTURE END LIST*
D10*
X94000000Y-45000000D02*
X186000000Y-45000000D01*
X186000000Y-89000000D01*
X94000000Y-89000000D01*
X94000000Y-45000000D01*
D11*
%TA.AperFunction,Profile*%
%TO.C,U6*%
G36*
X143800866Y-78470254D02*
G01*
X143930320Y-78529373D01*
X144037875Y-78622570D01*
X144114816Y-78742292D01*
X144154911Y-78878843D01*
X144154911Y-79021157D01*
X144114816Y-79157708D01*
X144037875Y-79277430D01*
X143930320Y-79370627D01*
X143800866Y-79429746D01*
X143660000Y-79450000D01*
X143519134Y-79429746D01*
X143389680Y-79370627D01*
X143282125Y-79277430D01*
X143205184Y-79157708D01*
X143165089Y-79021157D01*
X143165089Y-78878843D01*
X143205184Y-78742292D01*
X143282125Y-78622570D01*
X143389680Y-78529373D01*
X143519134Y-78470254D01*
X143660000Y-78450000D01*
X143800866Y-78470254D01*
G37*
%TD.AperFunction*%
%TA.AperFunction,Profile*%
G36*
X150480866Y-84970254D02*
G01*
X150610320Y-85029373D01*
X150717875Y-85122570D01*
X150794816Y-85242292D01*
X150834911Y-85378843D01*
X150834911Y-85521157D01*
X150794816Y-85657708D01*
X150717875Y-85777430D01*
X150610320Y-85870627D01*
X150480866Y-85929746D01*
X150340000Y-85950000D01*
X150199134Y-85929746D01*
X150069680Y-85870627D01*
X149962125Y-85777430D01*
X149885184Y-85657708D01*
X149845089Y-85521157D01*
X149845089Y-85378843D01*
X149885184Y-85242292D01*
X149962125Y-85122570D01*
X150069680Y-85029373D01*
X150199134Y-84970254D01*
X150340000Y-84950000D01*
X150480866Y-84970254D01*
G37*
%TD.AperFunction*%
%TD*%
M02*
